<?xml version="1.0" encoding="UTF-8"?>
<svg xmlns="http://www.w3.org/2000/svg" version="1.1" width="200" height="200" viewBox="0 0 200 200"><rect x="0" y="0" width="200" height="200" fill="#ffffff"/><g transform="scale(5.405)"><g transform="translate(2,2)"><path fill-rule="evenodd" d="M9 0L9 1L8 1L8 2L9 2L9 3L8 3L8 4L10 4L10 7L11 7L11 4L12 4L12 5L13 5L13 6L12 6L12 9L13 9L13 8L14 8L14 9L15 9L15 10L17 10L17 9L18 9L18 8L17 8L17 9L16 9L16 7L17 7L17 5L16 5L16 4L18 4L18 5L21 5L21 6L20 6L20 7L19 7L19 6L18 6L18 7L19 7L19 8L20 8L20 9L19 9L19 10L20 10L20 12L25 12L25 11L26 11L26 12L28 12L28 13L25 13L25 14L27 14L27 15L29 15L29 14L28 14L28 13L30 13L30 12L31 12L31 11L32 11L32 10L33 10L33 9L32 9L32 8L31 8L31 9L30 9L30 8L29 8L29 9L30 9L30 10L29 10L29 11L28 11L28 8L27 8L27 9L26 9L26 8L25 8L25 6L24 6L24 8L23 8L23 5L24 5L24 4L23 4L23 3L25 3L25 2L23 2L23 1L24 1L24 0L20 0L20 2L18 2L18 3L17 3L17 2L16 2L16 4L12 4L12 2L13 2L13 1L11 1L11 2L10 2L10 0ZM15 0L15 1L17 1L17 0ZM18 0L18 1L19 1L19 0ZM14 2L14 3L15 3L15 2ZM20 2L20 3L18 3L18 4L20 4L20 3L21 3L21 4L22 4L22 5L23 5L23 4L22 4L22 3L23 3L23 2L22 2L22 3L21 3L21 2ZM10 3L10 4L11 4L11 3ZM8 5L8 7L9 7L9 5ZM13 6L13 7L14 7L14 8L15 8L15 7L16 7L16 6L15 6L15 7L14 7L14 6ZM21 6L21 7L20 7L20 8L21 8L21 10L23 10L23 11L25 11L25 10L26 10L26 9L25 9L25 8L24 8L24 10L23 10L23 9L22 9L22 8L21 8L21 7L22 7L22 6ZM0 8L0 9L2 9L2 13L3 13L3 12L4 12L4 14L3 14L3 15L2 15L2 16L1 16L1 14L0 14L0 16L1 16L1 18L2 18L2 19L1 19L1 20L0 20L0 25L1 25L1 20L2 20L2 22L4 22L4 23L2 23L2 25L3 25L3 24L4 24L4 23L7 23L7 22L8 22L8 21L9 21L9 18L10 18L10 16L11 16L11 15L9 15L9 14L11 14L11 13L12 13L12 14L13 14L13 15L12 15L12 17L13 17L13 16L14 16L14 17L17 17L17 18L18 18L18 19L19 19L19 20L20 20L20 21L18 21L18 20L16 20L16 18L15 18L15 19L14 19L14 20L15 20L15 21L12 21L12 19L13 19L13 18L11 18L11 19L10 19L10 20L11 20L11 21L12 21L12 22L13 22L13 23L12 23L12 25L13 25L13 24L14 24L14 25L17 25L17 26L15 26L15 27L14 27L14 28L15 28L15 29L12 29L12 27L13 27L13 26L11 26L11 22L10 22L10 26L9 26L9 25L8 25L8 24L6 24L6 25L8 25L8 27L10 27L10 26L11 26L11 29L12 29L12 30L13 30L13 31L12 31L12 33L13 33L13 32L14 32L14 33L16 33L16 32L14 32L14 31L18 31L18 32L19 32L19 33L20 33L20 32L22 32L22 33L23 33L23 31L24 31L24 29L27 29L27 30L25 30L25 31L27 31L27 32L24 32L24 33L28 33L28 32L29 32L29 33L30 33L30 32L31 32L31 33L32 33L32 32L31 32L31 30L33 30L33 28L32 28L32 29L31 29L31 30L29 30L29 29L30 29L30 28L31 28L31 27L32 27L32 26L33 26L33 24L32 24L32 26L31 26L31 25L30 25L30 24L31 24L31 23L32 23L32 22L33 22L33 21L32 21L32 20L31 20L31 19L32 19L32 18L33 18L33 17L32 17L32 16L31 16L31 15L32 15L32 14L33 14L33 13L31 13L31 15L30 15L30 16L31 16L31 19L30 19L30 17L29 17L29 16L28 16L28 17L26 17L26 18L25 18L25 19L26 19L26 20L28 20L28 21L25 21L25 20L23 20L23 19L22 19L22 17L24 17L24 15L23 15L23 14L24 14L24 13L23 13L23 14L22 14L22 15L20 15L20 16L22 16L22 17L18 17L18 16L17 16L17 14L16 14L16 13L12 13L12 11L13 11L13 10L11 10L11 11L10 11L10 9L11 9L11 8L6 8L6 9L5 9L5 8ZM4 9L4 10L3 10L3 11L4 11L4 12L5 12L5 13L6 13L6 14L5 14L5 16L7 16L7 17L5 17L5 18L4 18L4 17L3 17L3 16L4 16L4 15L3 15L3 16L2 16L2 18L4 18L4 19L2 19L2 20L3 20L3 21L6 21L6 22L7 22L7 21L6 21L6 20L8 20L8 19L6 19L6 20L4 20L4 19L5 19L5 18L9 18L9 17L8 17L8 16L9 16L9 15L8 15L8 13L6 13L6 12L8 12L8 10L7 10L7 9L6 9L6 10L7 10L7 11L4 11L4 10L5 10L5 9ZM0 10L0 11L1 11L1 10ZM30 10L30 11L29 11L29 12L30 12L30 11L31 11L31 10ZM14 11L14 12L15 12L15 11ZM16 11L16 12L17 12L17 13L18 13L18 15L19 15L19 14L21 14L21 13L18 13L18 12L19 12L19 11L18 11L18 12L17 12L17 11ZM10 12L10 13L11 13L11 12ZM6 14L6 15L7 15L7 14ZM14 15L14 16L15 16L15 15ZM25 15L25 16L26 16L26 15ZM28 17L28 18L27 18L27 19L28 19L28 20L29 20L29 21L28 21L28 22L29 22L29 21L30 21L30 23L29 23L29 24L30 24L30 23L31 23L31 20L30 20L30 19L29 19L29 17ZM19 18L19 19L20 19L20 20L21 20L21 21L22 21L22 22L23 22L23 23L22 23L22 24L20 24L20 25L21 25L21 26L24 26L24 25L22 25L22 24L23 24L23 23L24 23L24 24L25 24L25 21L24 21L24 22L23 22L23 21L22 21L22 20L21 20L21 18ZM15 21L15 22L17 22L17 23L16 23L16 24L18 24L18 23L20 23L20 22L17 22L17 21ZM26 22L26 23L27 23L27 24L28 24L28 23L27 23L27 22ZM14 23L14 24L15 24L15 23ZM25 25L25 28L28 28L28 25ZM29 25L29 26L30 26L30 25ZM18 26L18 27L15 27L15 28L16 28L16 29L17 29L17 30L19 30L19 31L21 31L21 30L22 30L22 31L23 31L23 29L24 29L24 28L23 28L23 29L22 29L22 28L20 28L20 30L19 30L19 27L20 27L20 26ZM26 26L26 27L27 27L27 26ZM29 27L29 28L30 28L30 27ZM8 28L8 33L9 33L9 31L10 31L10 32L11 32L11 31L10 31L10 29L9 29L9 28ZM28 30L28 31L29 31L29 32L30 32L30 31L29 31L29 30ZM0 0L0 7L7 7L7 0ZM1 1L1 6L6 6L6 1ZM2 2L2 5L5 5L5 2ZM26 0L26 7L33 7L33 0ZM27 1L27 6L32 6L32 1ZM28 2L28 5L31 5L31 2ZM0 26L0 33L7 33L7 26ZM1 27L1 32L6 32L6 27ZM2 28L2 31L5 31L5 28Z" fill="#000000"/></g></g></svg>
