<?xml version="1.0" encoding="UTF-8"?>
<svg xmlns="http://www.w3.org/2000/svg" version="1.1" width="200" height="200" viewBox="0 0 200 200"><rect x="0" y="0" width="200" height="200" fill="#ffffff"/><g transform="scale(5.405)"><g transform="translate(2,2)"><path fill-rule="evenodd" d="M8 0L8 2L9 2L9 3L10 3L10 2L9 2L9 1L11 1L11 2L12 2L12 0ZM13 0L13 1L15 1L15 2L16 2L16 0ZM17 0L17 1L18 1L18 2L17 2L17 3L15 3L15 5L13 5L13 3L14 3L14 2L13 2L13 3L11 3L11 5L9 5L9 4L8 4L8 9L7 9L7 8L5 8L5 9L7 9L7 10L6 10L6 11L5 11L5 10L4 10L4 9L3 9L3 8L0 8L0 10L2 10L2 11L3 11L3 12L2 12L2 14L1 14L1 13L0 13L0 14L1 14L1 17L2 17L2 18L1 18L1 19L2 19L2 20L0 20L0 21L2 21L2 20L3 20L3 21L4 21L4 23L5 23L5 21L9 21L9 22L10 22L10 21L11 21L11 20L13 20L13 22L15 22L15 23L16 23L16 20L17 20L17 19L18 19L18 20L19 20L19 24L18 24L18 25L17 25L17 26L18 26L18 25L19 25L19 27L18 27L18 28L16 28L16 24L15 24L15 26L13 26L13 25L14 25L14 23L13 23L13 24L11 24L11 25L12 25L12 27L10 27L10 30L8 30L8 33L14 33L14 31L13 31L13 32L9 32L9 31L10 31L10 30L11 30L11 31L12 31L12 30L11 30L11 28L13 28L13 30L15 30L15 33L18 33L18 32L16 32L16 30L17 30L17 29L18 29L18 31L19 31L19 32L20 32L20 33L21 33L21 31L22 31L22 32L23 32L23 33L26 33L26 31L24 31L24 32L23 32L23 30L25 30L25 29L27 29L27 31L28 31L28 32L29 32L29 33L30 33L30 32L29 32L29 31L30 31L30 30L29 30L29 24L25 24L25 23L24 23L24 22L26 22L26 23L27 23L27 20L28 20L28 18L27 18L27 15L28 15L28 16L29 16L29 18L32 18L32 19L33 19L33 16L32 16L32 17L30 17L30 16L29 16L29 14L32 14L32 15L33 15L33 12L31 12L31 13L30 13L30 12L29 12L29 11L30 11L30 10L31 10L31 11L33 11L33 8L31 8L31 9L30 9L30 10L29 10L29 11L28 11L28 10L27 10L27 9L29 9L29 8L25 8L25 9L23 9L23 11L22 11L22 9L20 9L20 7L21 7L21 6L20 6L20 7L19 7L19 1L20 1L20 4L21 4L21 5L22 5L22 8L23 8L23 1L22 1L22 0L21 0L21 1L20 1L20 0ZM21 1L21 2L22 2L22 1ZM24 1L24 4L25 4L25 1ZM11 5L11 7L10 7L10 6L9 6L9 7L10 7L10 9L8 9L8 10L7 10L7 11L6 11L6 12L7 12L7 11L8 11L8 10L11 10L11 11L12 11L12 9L11 9L11 8L13 8L13 7L14 7L14 9L13 9L13 10L15 10L15 11L16 11L16 9L15 9L15 8L17 8L17 10L18 10L18 11L17 11L17 13L16 13L16 12L15 12L15 14L13 14L13 12L14 12L14 11L13 11L13 12L11 12L11 14L12 14L12 15L11 15L11 16L10 16L10 13L9 13L9 15L8 15L8 13L5 13L5 11L4 11L4 12L3 12L3 14L2 14L2 16L4 16L4 17L5 17L5 18L3 18L3 20L4 20L4 21L5 21L5 20L4 20L4 19L5 19L5 18L7 18L7 19L6 19L6 20L9 20L9 21L10 21L10 20L11 20L11 19L12 19L12 17L11 17L11 16L13 16L13 15L14 15L14 17L13 17L13 18L15 18L15 14L19 14L19 12L20 12L20 11L21 11L21 13L22 13L22 14L21 14L21 18L24 18L24 19L23 19L23 20L22 20L22 19L20 19L20 21L21 21L21 22L20 22L20 23L21 23L21 25L22 25L22 27L21 27L21 26L20 26L20 27L21 27L21 29L20 29L20 28L18 28L18 29L20 29L20 30L21 30L21 29L22 29L22 30L23 30L23 28L22 28L22 27L24 27L24 24L23 24L23 21L24 21L24 19L25 19L25 20L26 20L26 19L25 19L25 18L24 18L24 17L25 17L25 16L26 16L26 15L27 15L27 14L29 14L29 12L28 12L28 13L27 13L27 14L26 14L26 13L25 13L25 10L24 10L24 13L25 13L25 14L24 14L24 15L25 15L25 16L22 16L22 15L23 15L23 13L22 13L22 11L21 11L21 10L20 10L20 11L19 11L19 10L18 10L18 9L19 9L19 8L18 8L18 5L17 5L17 7L16 7L16 5L15 5L15 7L14 7L14 6L13 6L13 7L12 7L12 5ZM24 5L24 7L25 7L25 5ZM2 9L2 10L3 10L3 9ZM9 11L9 12L10 12L10 11ZM26 11L26 12L27 12L27 11ZM4 13L4 16L5 16L5 15L7 15L7 16L6 16L6 17L7 17L7 18L8 18L8 17L7 17L7 16L8 16L8 15L7 15L7 14L5 14L5 13ZM16 15L16 19L17 19L17 17L18 17L18 18L19 18L19 16L20 16L20 15L19 15L19 16L18 16L18 15ZM9 16L9 17L10 17L10 19L11 19L11 17L10 17L10 16ZM13 19L13 20L14 20L14 19ZM32 20L32 21L31 21L31 22L30 22L30 23L31 23L31 22L32 22L32 23L33 23L33 20ZM17 21L17 23L18 23L18 21ZM0 22L0 23L3 23L3 22ZM6 22L6 23L7 23L7 22ZM11 22L11 23L12 23L12 22ZM21 22L21 23L22 23L22 22ZM28 22L28 23L29 23L29 22ZM8 23L8 24L6 24L6 25L8 25L8 26L9 26L9 25L10 25L10 24L9 24L9 23ZM0 24L0 25L4 25L4 24ZM19 24L19 25L20 25L20 24ZM31 24L31 25L30 25L30 27L31 27L31 25L32 25L32 27L33 27L33 25L32 25L32 24ZM25 25L25 28L28 28L28 25ZM26 26L26 27L27 27L27 26ZM8 27L8 28L9 28L9 27ZM13 27L13 28L14 28L14 27ZM31 28L31 31L33 31L33 29L32 29L32 28ZM15 29L15 30L16 30L16 29ZM32 32L32 33L33 33L33 32ZM0 0L0 7L7 7L7 0ZM1 1L1 6L6 6L6 1ZM2 2L2 5L5 5L5 2ZM26 0L26 7L33 7L33 0ZM27 1L27 6L32 6L32 1ZM28 2L28 5L31 5L31 2ZM0 26L0 33L7 33L7 26ZM1 27L1 32L6 32L6 27ZM2 28L2 31L5 31L5 28Z" fill="#000000"/></g></g></svg>
