<?xml version="1.0" encoding="UTF-8"?>
<svg xmlns="http://www.w3.org/2000/svg" version="1.1" width="200" height="200" viewBox="0 0 200 200"><rect x="0" y="0" width="200" height="200" fill="#ffffff"/><g transform="scale(5.405)"><g transform="translate(2,2)"><path fill-rule="evenodd" d="M9 0L9 1L8 1L8 2L9 2L9 3L8 3L8 4L10 4L10 7L11 7L11 4L12 4L12 5L13 5L13 6L12 6L12 9L14 9L14 12L13 12L13 13L12 13L12 11L13 11L13 10L11 10L11 11L10 11L10 9L11 9L11 8L6 8L6 9L8 9L8 11L7 11L7 10L5 10L5 8L0 8L0 9L3 9L3 10L0 10L0 13L1 13L1 14L0 14L0 15L2 15L2 13L1 13L1 12L2 12L2 11L3 11L3 10L4 10L4 12L3 12L3 13L4 13L4 14L5 14L5 15L7 15L7 16L5 16L5 17L4 17L4 15L3 15L3 22L4 22L4 23L2 23L2 25L4 25L4 24L6 24L6 25L7 25L7 24L8 24L8 27L9 27L9 28L8 28L8 33L11 33L11 32L9 32L9 31L10 31L10 30L11 30L11 29L12 29L12 30L13 30L13 31L12 31L12 33L13 33L13 32L14 32L14 33L16 33L16 32L14 32L14 31L18 31L18 32L19 32L19 33L20 33L20 32L22 32L22 33L23 33L23 31L24 31L24 29L28 29L28 30L25 30L25 32L24 32L24 33L25 33L25 32L26 32L26 33L27 33L27 32L28 32L28 33L29 33L29 31L28 31L28 30L29 30L29 29L30 29L30 30L31 30L31 31L30 31L30 32L31 32L31 33L32 33L32 32L31 32L31 31L32 31L32 30L31 30L31 29L30 29L30 28L31 28L31 27L32 27L32 28L33 28L33 27L32 27L32 26L33 26L33 24L32 24L32 26L29 26L29 25L30 25L30 24L31 24L31 23L32 23L32 22L33 22L33 21L32 21L32 20L31 20L31 19L32 19L32 18L33 18L33 17L32 17L32 16L31 16L31 15L32 15L32 14L33 14L33 13L31 13L31 15L30 15L30 13L29 13L29 10L28 10L28 8L27 8L27 9L26 9L26 8L25 8L25 6L24 6L24 8L23 8L23 5L24 5L24 4L23 4L23 3L25 3L25 2L23 2L23 1L24 1L24 0L20 0L20 2L18 2L18 3L17 3L17 2L16 2L16 1L17 1L17 0L16 0L16 1L14 1L14 3L13 3L13 4L12 4L12 2L13 2L13 1L11 1L11 2L10 2L10 0ZM18 0L18 1L19 1L19 0ZM20 2L20 3L18 3L18 4L15 4L15 3L14 3L14 4L13 4L13 5L14 5L14 4L15 4L15 5L16 5L16 6L15 6L15 7L16 7L16 6L17 6L17 8L18 8L18 9L15 9L15 8L14 8L14 6L13 6L13 8L14 8L14 9L15 9L15 10L17 10L17 12L18 12L18 13L15 13L15 12L14 12L14 13L15 13L15 14L12 14L12 13L11 13L11 12L10 12L10 13L5 13L5 12L4 12L4 13L5 13L5 14L7 14L7 15L8 15L8 16L7 16L7 17L5 17L5 19L4 19L4 20L5 20L5 23L6 23L6 24L7 24L7 23L8 23L8 20L7 20L7 19L6 19L6 18L7 18L7 17L9 17L9 18L10 18L10 17L11 17L11 18L14 18L14 19L12 19L12 21L11 21L11 20L9 20L9 21L10 21L10 24L9 24L9 26L17 26L17 25L12 25L12 23L13 23L13 24L14 24L14 23L15 23L15 24L16 24L16 23L17 23L17 24L18 24L18 23L20 23L20 22L17 22L17 21L15 21L15 20L14 20L14 19L15 19L15 18L17 18L17 20L18 20L18 21L20 21L20 20L21 20L21 21L22 21L22 22L23 22L23 23L22 23L22 24L20 24L20 25L21 25L21 26L24 26L24 25L22 25L22 24L23 24L23 23L24 23L24 24L27 24L27 23L28 23L28 24L30 24L30 23L29 23L29 22L30 22L30 21L31 21L31 20L30 20L30 19L31 19L31 16L30 16L30 15L29 15L29 13L28 13L28 15L29 15L29 17L28 17L28 16L26 16L26 15L25 15L25 14L26 14L26 13L27 13L27 12L28 12L28 11L27 11L27 10L25 10L25 8L24 8L24 10L23 10L23 9L22 9L22 8L21 8L21 7L22 7L22 6L21 6L21 5L18 5L18 4L20 4L20 3L21 3L21 4L22 4L22 5L23 5L23 4L22 4L22 3L23 3L23 2L22 2L22 3L21 3L21 2ZM10 3L10 4L11 4L11 3ZM8 5L8 7L9 7L9 5ZM18 6L18 7L19 7L19 8L20 8L20 9L19 9L19 10L20 10L20 12L26 12L26 11L23 11L23 10L21 10L21 8L20 8L20 7L21 7L21 6L20 6L20 7L19 7L19 6ZM29 8L29 9L30 9L30 8ZM31 8L31 10L33 10L33 9L32 9L32 8ZM6 11L6 12L7 12L7 11ZM18 11L18 12L19 12L19 11ZM30 11L30 12L31 12L31 11ZM10 13L10 14L9 14L9 17L10 17L10 15L11 15L11 13ZM18 13L18 15L19 15L19 14L21 14L21 13ZM23 13L23 14L22 14L22 15L20 15L20 16L22 16L22 17L18 17L18 16L16 16L16 15L17 15L17 14L15 14L15 16L13 16L13 15L12 15L12 17L15 17L15 16L16 16L16 17L17 17L17 18L18 18L18 19L19 19L19 20L20 20L20 19L19 19L19 18L21 18L21 20L22 20L22 21L23 21L23 22L24 22L24 21L25 21L25 23L26 23L26 22L28 22L28 21L30 21L30 20L28 20L28 21L25 21L25 20L23 20L23 19L22 19L22 17L24 17L24 15L23 15L23 14L24 14L24 13ZM0 16L0 25L1 25L1 21L2 21L2 18L1 18L1 16ZM25 17L25 18L27 18L27 19L26 19L26 20L27 20L27 19L30 19L30 17L29 17L29 18L28 18L28 17ZM5 19L5 20L6 20L6 21L7 21L7 20L6 20L6 19ZM13 20L13 21L12 21L12 22L13 22L13 23L14 23L14 22L15 22L15 23L16 23L16 22L15 22L15 21L14 21L14 20ZM13 21L13 22L14 22L14 21ZM6 22L6 23L7 23L7 22ZM25 25L25 28L28 28L28 25ZM18 26L18 27L12 27L12 29L14 29L14 30L15 30L15 28L16 28L16 29L17 29L17 30L19 30L19 31L21 31L21 30L22 30L22 31L23 31L23 29L24 29L24 28L23 28L23 29L22 29L22 28L20 28L20 30L19 30L19 27L20 27L20 26ZM26 26L26 27L27 27L27 26ZM29 27L29 28L30 28L30 27ZM9 28L9 30L10 30L10 28ZM26 31L26 32L27 32L27 31ZM0 0L0 7L7 7L7 0ZM1 1L1 6L6 6L6 1ZM2 2L2 5L5 5L5 2ZM26 0L26 7L33 7L33 0ZM27 1L27 6L32 6L32 1ZM28 2L28 5L31 5L31 2ZM0 26L0 33L7 33L7 26ZM1 27L1 32L6 32L6 27ZM2 28L2 31L5 31L5 28Z" fill="#000000"/></g></g></svg>
