<?xml version="1.0" encoding="UTF-8"?>
<svg xmlns="http://www.w3.org/2000/svg" version="1.1" width="200" height="200" viewBox="0 0 200 200"><rect x="0" y="0" width="200" height="200" fill="#ffffff"/><g transform="scale(5.405)"><g transform="translate(2,2)"><path fill-rule="evenodd" d="M8 0L8 1L10 1L10 0ZM16 0L16 1L18 1L18 3L15 3L15 1L14 1L14 2L11 2L11 4L10 4L10 3L9 3L9 2L8 2L8 5L9 5L9 6L8 6L8 7L9 7L9 8L8 8L8 9L9 9L9 10L10 10L10 9L9 9L9 8L10 8L10 7L11 7L11 8L12 8L12 7L13 7L13 6L14 6L14 7L15 7L15 6L14 6L14 5L18 5L18 3L19 3L19 6L18 6L18 7L17 7L17 6L16 6L16 10L17 10L17 11L19 11L19 12L20 12L20 13L19 13L19 14L18 14L18 15L19 15L19 16L18 16L18 17L17 17L17 16L16 16L16 17L12 17L12 16L13 16L13 14L14 14L14 16L15 16L15 13L16 13L16 14L17 14L17 13L18 13L18 12L17 12L17 13L16 13L16 12L15 12L15 13L14 13L14 11L11 11L11 13L10 13L10 12L9 12L9 11L8 11L8 13L7 13L7 12L6 12L6 13L5 13L5 12L4 12L4 11L7 11L7 10L5 10L5 9L4 9L4 8L0 8L0 9L2 9L2 10L3 10L3 11L1 11L1 12L3 12L3 13L2 13L2 14L3 14L3 15L4 15L4 16L3 16L3 18L2 18L2 17L1 17L1 16L2 16L2 15L1 15L1 13L0 13L0 18L2 18L2 20L4 20L4 21L5 21L5 23L4 23L4 22L3 22L3 21L1 21L1 19L0 19L0 22L2 22L2 23L1 23L1 24L0 24L0 25L1 25L1 24L2 24L2 23L3 23L3 25L4 25L4 24L6 24L6 25L8 25L8 26L9 26L9 27L11 27L11 28L12 28L12 26L13 26L13 24L14 24L14 26L16 26L16 27L14 27L14 28L13 28L13 31L15 31L15 32L16 32L16 29L15 29L15 28L17 28L17 27L19 27L19 28L18 28L18 29L17 29L17 33L22 33L22 32L19 32L19 31L18 31L18 29L19 29L19 30L22 30L22 31L23 31L23 33L24 33L24 32L26 32L26 33L27 33L27 32L26 32L26 31L27 31L27 30L26 30L26 29L29 29L29 31L32 31L32 32L33 32L33 31L32 31L32 29L33 29L33 28L31 28L31 27L30 27L30 26L31 26L31 25L29 25L29 24L30 24L30 23L31 23L31 24L32 24L32 25L33 25L33 24L32 24L32 23L33 23L33 21L31 21L31 20L30 20L30 18L31 18L31 19L32 19L32 20L33 20L33 19L32 19L32 18L33 18L33 16L31 16L31 14L32 14L32 13L30 13L30 12L29 12L29 10L27 10L27 9L26 9L26 8L25 8L25 1L24 1L24 0L23 0L23 2L24 2L24 3L22 3L22 4L21 4L21 5L20 5L20 3L21 3L21 2L19 2L19 1L20 1L20 0ZM21 0L21 1L22 1L22 0ZM12 3L12 5L10 5L10 6L9 6L9 7L10 7L10 6L11 6L11 7L12 7L12 5L13 5L13 3ZM22 4L22 6L21 6L21 7L20 7L20 6L19 6L19 8L20 8L20 9L21 9L21 8L22 8L22 10L21 10L21 13L20 13L20 14L22 14L22 15L23 15L23 16L24 16L24 17L25 17L25 20L22 20L22 19L21 19L21 20L22 20L22 21L21 21L21 22L19 22L19 23L18 23L18 22L17 22L17 23L16 23L16 21L17 21L17 19L18 19L18 18L19 18L19 21L20 21L20 17L21 17L21 18L22 18L22 17L21 17L21 15L20 15L20 16L19 16L19 17L18 17L18 18L17 18L17 17L16 17L16 20L15 20L15 21L13 21L13 22L15 22L15 24L16 24L16 25L17 25L17 26L19 26L19 25L20 25L20 26L21 26L21 27L23 27L23 26L24 26L24 24L27 24L27 23L25 23L25 22L26 22L26 21L27 21L27 22L28 22L28 23L30 23L30 22L31 22L31 21L30 21L30 20L27 20L27 18L28 18L28 19L29 19L29 18L28 18L28 15L29 15L29 16L30 16L30 14L29 14L29 13L28 13L28 11L26 11L26 13L25 13L25 9L23 9L23 8L24 8L24 4ZM22 6L22 7L23 7L23 6ZM6 8L6 9L7 9L7 8ZM14 8L14 9L13 9L13 10L14 10L14 9L15 9L15 8ZM28 8L28 9L30 9L30 11L31 11L31 12L32 12L32 11L33 11L33 8L32 8L32 9L31 9L31 8ZM17 9L17 10L18 10L18 9ZM19 10L19 11L20 11L20 10ZM23 10L23 12L22 12L22 13L23 13L23 12L24 12L24 10ZM12 12L12 14L11 14L11 16L9 16L9 15L8 15L8 14L10 14L10 13L8 13L8 14L7 14L7 13L6 13L6 14L7 14L7 15L6 15L6 16L7 16L7 15L8 15L8 17L4 17L4 19L6 19L6 20L7 20L7 19L6 19L6 18L8 18L8 19L9 19L9 20L8 20L8 21L11 21L11 22L10 22L10 23L9 23L9 22L7 22L7 21L6 21L6 22L7 22L7 23L6 23L6 24L7 24L7 23L8 23L8 25L9 25L9 26L11 26L11 25L12 25L12 24L13 24L13 23L11 23L11 22L12 22L12 21L11 21L11 20L12 20L12 19L11 19L11 20L10 20L10 19L9 19L9 18L12 18L12 17L11 17L11 16L12 16L12 14L13 14L13 12ZM3 13L3 14L5 14L5 13ZM24 13L24 15L25 15L25 17L26 17L26 18L27 18L27 14L28 14L28 13L27 13L27 14L26 14L26 15L25 15L25 13ZM8 17L8 18L9 18L9 17ZM31 17L31 18L32 18L32 17ZM14 18L14 19L13 19L13 20L14 20L14 19L15 19L15 18ZM23 18L23 19L24 19L24 18ZM23 21L23 22L22 22L22 23L23 23L23 24L22 24L22 25L23 25L23 24L24 24L24 21ZM29 21L29 22L30 22L30 21ZM10 23L10 24L11 24L11 23ZM17 24L17 25L19 25L19 24ZM20 24L20 25L21 25L21 24ZM25 25L25 28L28 28L28 25ZM26 26L26 27L27 27L27 26ZM9 28L9 29L8 29L8 33L9 33L9 30L10 30L10 31L11 31L11 30L10 30L10 28ZM20 28L20 29L21 29L21 28ZM24 30L24 31L26 31L26 30ZM10 32L10 33L11 33L11 32ZM12 32L12 33L13 33L13 32ZM28 32L28 33L31 33L31 32ZM0 0L0 7L7 7L7 0ZM1 1L1 6L6 6L6 1ZM2 2L2 5L5 5L5 2ZM26 0L26 7L33 7L33 0ZM27 1L27 6L32 6L32 1ZM28 2L28 5L31 5L31 2ZM0 26L0 33L7 33L7 26ZM1 27L1 32L6 32L6 27ZM2 28L2 31L5 31L5 28Z" fill="#000000"/></g></g></svg>
