<?xml version="1.0" encoding="UTF-8"?>
<svg xmlns="http://www.w3.org/2000/svg" version="1.1" width="200" height="200" viewBox="0 0 200 200"><rect x="0" y="0" width="200" height="200" fill="#ffffff"/><g transform="scale(5.405)"><g transform="translate(2,2)"><path fill-rule="evenodd" d="M8 0L8 1L10 1L10 0ZM15 0L15 1L14 1L14 2L11 2L11 4L10 4L10 3L9 3L9 2L8 2L8 5L9 5L9 6L8 6L8 7L9 7L9 8L8 8L8 9L9 9L9 10L8 10L8 11L7 11L7 10L6 10L6 9L7 9L7 8L6 8L6 9L4 9L4 8L0 8L0 9L1 9L1 10L2 10L2 11L3 11L3 12L6 12L6 13L7 13L7 12L8 12L8 11L9 11L9 10L10 10L10 9L9 9L9 8L10 8L10 7L11 7L11 8L12 8L12 7L13 7L13 9L15 9L15 10L14 10L14 11L11 11L11 13L10 13L10 12L9 12L9 14L8 14L8 15L7 15L7 14L5 14L5 15L4 15L4 14L2 14L2 13L1 13L1 14L0 14L0 15L1 15L1 16L0 16L0 17L1 17L1 16L2 16L2 15L4 15L4 16L5 16L5 21L1 21L1 20L0 20L0 22L2 22L2 23L1 23L1 24L0 24L0 25L1 25L1 24L2 24L2 23L3 23L3 22L5 22L5 23L4 23L4 24L3 24L3 25L5 25L5 23L7 23L7 24L6 24L6 25L8 25L8 26L9 26L9 25L10 25L10 24L11 24L11 23L14 23L14 22L15 22L15 21L14 21L14 20L13 20L13 18L14 18L14 17L12 17L12 16L14 16L14 15L15 15L15 16L16 16L16 17L15 17L15 20L17 20L17 22L16 22L16 24L14 24L14 26L13 26L13 24L12 24L12 25L11 25L11 27L9 27L9 28L10 28L10 29L8 29L8 33L10 33L10 32L9 32L9 31L11 31L11 32L12 32L12 31L11 31L11 30L10 30L10 29L11 29L11 28L12 28L12 29L13 29L13 28L12 28L12 26L13 26L13 27L14 27L14 30L13 30L13 33L15 33L15 32L16 32L16 30L15 30L15 29L16 29L16 28L15 28L15 27L14 27L14 26L16 26L16 27L19 27L19 28L17 28L17 29L18 29L18 30L17 30L17 32L18 32L18 33L19 33L19 32L20 32L20 31L19 31L19 29L21 29L21 31L22 31L22 32L21 32L21 33L22 33L22 32L25 32L25 33L28 33L28 32L30 32L30 33L31 33L31 32L30 32L30 31L28 31L28 29L29 29L29 27L30 27L30 29L31 29L31 27L30 27L30 26L31 26L31 25L30 25L30 24L29 24L29 23L28 23L28 19L29 19L29 21L30 21L30 22L31 22L31 24L32 24L32 25L33 25L33 24L32 24L32 23L33 23L33 21L31 21L31 20L30 20L30 18L31 18L31 19L32 19L32 20L33 20L33 19L32 19L32 18L33 18L33 16L31 16L31 14L32 14L32 13L30 13L30 14L28 14L28 15L27 15L27 14L26 14L26 18L27 18L27 21L26 21L26 20L25 20L25 19L22 19L22 18L23 18L23 16L24 16L24 18L25 18L25 16L24 16L24 15L25 15L25 13L24 13L24 15L22 15L22 13L21 13L21 15L20 15L20 13L19 13L19 15L20 15L20 18L21 18L21 19L19 19L19 18L18 18L18 17L19 17L19 16L18 16L18 17L17 17L17 16L16 16L16 15L17 15L17 14L18 14L18 12L17 12L17 14L16 14L16 15L15 15L15 14L14 14L14 13L13 13L13 14L12 14L12 12L16 12L16 10L17 10L17 11L19 11L19 12L21 12L21 11L19 11L19 10L21 10L21 9L22 9L22 8L23 8L23 10L22 10L22 11L23 11L23 12L24 12L24 11L25 11L25 10L26 10L26 11L27 11L27 13L29 13L29 12L28 12L28 11L31 11L31 12L32 12L32 11L33 11L33 8L32 8L32 9L31 9L31 8L28 8L28 9L26 9L26 8L24 8L24 7L25 7L25 4L24 4L24 7L23 7L23 6L22 6L22 8L21 8L21 6L20 6L20 4L21 4L21 3L20 3L20 4L19 4L19 5L18 5L18 3L16 3L16 1L17 1L17 2L19 2L19 0L18 0L18 1L17 1L17 0ZM20 0L20 1L22 1L22 4L23 4L23 3L24 3L24 2L25 2L25 1L24 1L24 0ZM12 3L12 5L10 5L10 6L9 6L9 7L10 7L10 6L11 6L11 7L12 7L12 5L13 5L13 7L14 7L14 5L15 5L15 9L16 9L16 8L17 8L17 7L18 7L18 5L17 5L17 4L16 4L16 3ZM13 4L13 5L14 5L14 4ZM16 6L16 7L17 7L17 6ZM19 6L19 7L20 7L20 6ZM2 9L2 10L3 10L3 9ZM17 9L17 10L19 10L19 9ZM24 9L24 10L25 10L25 9ZM28 9L28 10L27 10L27 11L28 11L28 10L31 10L31 11L32 11L32 10L31 10L31 9ZM4 10L4 11L5 11L5 10ZM0 11L0 12L1 12L1 11ZM6 11L6 12L7 12L7 11ZM1 14L1 15L2 15L2 14ZM11 14L11 15L8 15L8 16L7 16L7 15L6 15L6 16L7 16L7 17L6 17L6 18L7 18L7 17L8 17L8 18L9 18L9 17L10 17L10 18L12 18L12 17L10 17L10 16L12 16L12 14ZM13 14L13 15L14 15L14 14ZM29 15L29 16L30 16L30 15ZM8 16L8 17L9 17L9 16ZM2 17L2 18L1 18L1 19L2 19L2 20L4 20L4 18L3 18L3 17ZM21 17L21 18L22 18L22 17ZM27 17L27 18L28 18L28 17ZM31 17L31 18L32 18L32 17ZM2 18L2 19L3 19L3 18ZM17 18L17 19L18 19L18 18ZM6 19L6 20L10 20L10 21L11 21L11 22L10 22L10 23L11 23L11 22L12 22L12 21L11 21L11 20L12 20L12 19L11 19L11 20L10 20L10 19ZM21 19L21 20L22 20L22 22L19 22L19 23L17 23L17 24L20 24L20 26L21 26L21 27L23 27L23 25L22 25L22 22L23 22L23 20L22 20L22 19ZM24 20L24 22L25 22L25 20ZM6 21L6 22L8 22L8 21ZM8 23L8 24L9 24L9 23ZM20 23L20 24L21 24L21 23ZM26 23L26 24L28 24L28 23ZM16 25L16 26L19 26L19 25ZM21 25L21 26L22 26L22 25ZM25 25L25 28L28 28L28 25ZM26 26L26 27L27 27L27 26ZM26 29L26 30L27 30L27 29ZM32 29L32 30L33 30L33 29ZM22 30L22 31L23 31L23 30ZM24 30L24 31L25 31L25 30ZM18 31L18 32L19 32L19 31ZM27 31L27 32L28 32L28 31ZM32 31L32 32L33 32L33 31ZM0 0L0 7L7 7L7 0ZM1 1L1 6L6 6L6 1ZM2 2L2 5L5 5L5 2ZM26 0L26 7L33 7L33 0ZM27 1L27 6L32 6L32 1ZM28 2L28 5L31 5L31 2ZM0 26L0 33L7 33L7 26ZM1 27L1 32L6 32L6 27ZM2 28L2 31L5 31L5 28Z" fill="#000000"/></g></g></svg>
