<?xml version="1.0" encoding="UTF-8"?>
<svg xmlns="http://www.w3.org/2000/svg" version="1.1" width="200" height="200" viewBox="0 0 200 200"><rect x="0" y="0" width="200" height="200" fill="#ffffff"/><g transform="scale(5.405)"><g transform="translate(2,2)"><path fill-rule="evenodd" d="M9 0L9 1L8 1L8 2L9 2L9 3L8 3L8 4L10 4L10 7L11 7L11 4L12 4L12 5L14 5L14 4L16 4L16 5L15 5L15 6L14 6L14 8L13 8L13 6L12 6L12 9L13 9L13 10L11 10L11 11L10 11L10 9L11 9L11 8L6 8L6 9L5 9L5 8L0 8L0 9L2 9L2 11L3 11L3 12L4 12L4 11L5 11L5 13L7 13L7 12L6 12L6 11L7 11L7 10L8 10L8 9L9 9L9 11L8 11L8 13L10 13L10 15L9 15L9 14L8 14L8 16L6 16L6 15L7 15L7 14L6 14L6 15L5 15L5 17L7 17L7 18L4 18L4 14L3 14L3 13L1 13L1 12L0 12L0 13L1 13L1 14L3 14L3 15L1 15L1 16L2 16L2 17L0 17L0 19L1 19L1 21L0 21L0 25L1 25L1 21L3 21L3 20L4 20L4 22L2 22L2 24L3 24L3 25L5 25L5 24L6 24L6 25L8 25L8 27L9 27L9 28L8 28L8 33L10 33L10 32L11 32L11 33L12 33L12 32L13 32L13 33L14 33L14 32L15 32L15 33L18 33L18 32L15 32L15 31L16 31L16 30L17 30L17 31L18 31L18 30L19 30L19 29L20 29L20 30L21 30L21 28L22 28L22 29L23 29L23 30L22 30L22 31L20 31L20 33L21 33L21 32L22 32L22 33L28 33L28 31L27 31L27 30L29 30L29 33L30 33L30 32L31 32L31 33L32 33L32 32L31 32L31 31L32 31L32 30L30 30L30 29L29 29L29 28L31 28L31 29L32 29L32 28L31 28L31 27L32 27L32 26L33 26L33 24L32 24L32 26L29 26L29 24L31 24L31 23L32 23L32 22L33 22L33 21L32 21L32 20L31 20L31 19L32 19L32 18L33 18L33 17L32 17L32 16L31 16L31 15L32 15L32 14L33 14L33 13L31 13L31 15L30 15L30 16L31 16L31 19L30 19L30 17L29 17L29 14L27 14L27 13L26 13L26 12L25 12L25 11L26 11L26 10L27 10L27 9L28 9L28 8L27 8L27 9L26 9L26 8L25 8L25 10L24 10L24 11L22 11L22 9L24 9L24 7L25 7L25 6L24 6L24 7L23 7L23 5L24 5L24 4L25 4L25 3L23 3L23 2L22 2L22 0L21 0L21 1L20 1L20 0L16 0L16 1L15 1L15 2L14 2L14 3L13 3L13 4L12 4L12 2L13 2L13 1L11 1L11 2L10 2L10 0ZM23 0L23 1L24 1L24 0ZM16 1L16 2L17 2L17 3L18 3L18 4L17 4L17 8L16 8L16 9L14 9L14 10L13 10L13 11L12 11L12 13L11 13L11 12L10 12L10 13L11 13L11 17L9 17L9 19L8 19L8 20L7 20L7 19L6 19L6 20L7 20L7 21L5 21L5 23L4 23L4 24L5 24L5 23L6 23L6 24L7 24L7 23L6 23L6 22L8 22L8 25L9 25L9 22L10 22L10 24L11 24L11 25L10 25L10 26L14 26L14 27L12 27L12 28L14 28L14 29L13 29L13 30L12 30L12 29L11 29L11 32L12 32L12 31L13 31L13 32L14 32L14 31L15 31L15 30L16 30L16 29L17 29L17 28L18 28L18 29L19 29L19 27L20 27L20 26L18 26L18 27L17 27L17 26L16 26L16 25L17 25L17 24L18 24L18 23L20 23L20 24L19 24L19 25L20 25L20 24L21 24L21 25L22 25L22 26L23 26L23 25L24 25L24 24L23 24L23 25L22 25L22 24L21 24L21 23L20 23L20 22L18 22L18 23L17 23L17 24L16 24L16 25L14 25L14 23L13 23L13 22L14 22L14 20L18 20L18 21L19 21L19 20L21 20L21 22L23 22L23 23L24 23L24 22L26 22L26 24L29 24L29 21L30 21L30 23L31 23L31 20L30 20L30 19L29 19L29 17L28 17L28 19L27 19L27 18L25 18L25 17L24 17L24 16L25 16L25 14L26 14L26 13L25 13L25 12L23 12L23 13L22 13L22 12L21 12L21 13L22 13L22 14L21 14L21 15L20 15L20 14L17 14L17 15L15 15L15 16L18 16L18 17L20 17L20 16L21 16L21 17L22 17L22 18L23 18L23 21L22 21L22 20L21 20L21 19L20 19L20 18L19 18L19 19L18 19L18 18L16 18L16 17L15 17L15 18L14 18L14 15L13 15L13 14L12 14L12 13L13 13L13 12L14 12L14 14L15 14L15 11L14 11L14 10L16 10L16 11L17 11L17 12L16 12L16 13L17 13L17 12L18 12L18 13L20 13L20 11L21 11L21 10L18 10L18 9L22 9L22 8L23 8L23 7L22 7L22 5L23 5L23 4L22 4L22 3L20 3L20 1L18 1L18 2L17 2L17 1ZM10 3L10 4L11 4L11 3ZM19 3L19 4L18 4L18 7L19 7L19 5L20 5L20 8L22 8L22 7L21 7L21 4L20 4L20 3ZM8 5L8 7L9 7L9 5ZM15 6L15 7L16 7L16 6ZM17 8L17 9L16 9L16 10L17 10L17 9L18 9L18 8ZM29 8L29 9L30 9L30 10L28 10L28 11L27 11L27 12L28 12L28 13L30 13L30 12L31 12L31 11L32 11L32 10L33 10L33 9L32 9L32 8L31 8L31 9L30 9L30 8ZM4 9L4 10L5 10L5 11L6 11L6 10L7 10L7 9L6 9L6 10L5 10L5 9ZM0 10L0 11L1 11L1 10ZM30 10L30 11L28 11L28 12L30 12L30 11L31 11L31 10ZM18 11L18 12L19 12L19 11ZM23 13L23 14L22 14L22 15L21 15L21 16L22 16L22 17L23 17L23 18L24 18L24 19L25 19L25 18L24 18L24 17L23 17L23 14L24 14L24 13ZM12 15L12 17L13 17L13 15ZM19 15L19 16L20 16L20 15ZM27 15L27 16L26 16L26 17L27 17L27 16L28 16L28 15ZM11 18L11 19L10 19L10 20L8 20L8 21L10 21L10 20L11 20L11 21L12 21L12 22L13 22L13 21L12 21L12 19L14 19L14 18ZM15 18L15 19L16 19L16 18ZM2 19L2 20L3 20L3 19ZM26 19L26 20L24 20L24 21L23 21L23 22L24 22L24 21L26 21L26 22L27 22L27 21L29 21L29 19L28 19L28 20L27 20L27 19ZM26 20L26 21L27 21L27 20ZM15 21L15 22L16 22L16 21ZM12 23L12 25L13 25L13 23ZM25 25L25 28L28 28L28 25ZM15 26L15 27L14 27L14 28L15 28L15 29L14 29L14 30L15 30L15 29L16 29L16 28L17 28L17 27L16 27L16 26ZM26 26L26 27L27 27L27 26ZM10 27L10 28L9 28L9 29L10 29L10 28L11 28L11 27ZM23 28L23 29L24 29L24 31L22 31L22 32L25 32L25 31L26 31L26 30L27 30L27 29L24 29L24 28ZM9 30L9 32L10 32L10 30ZM0 0L0 7L7 7L7 0ZM1 1L1 6L6 6L6 1ZM2 2L2 5L5 5L5 2ZM26 0L26 7L33 7L33 0ZM27 1L27 6L32 6L32 1ZM28 2L28 5L31 5L31 2ZM0 26L0 33L7 33L7 26ZM1 27L1 32L6 32L6 27ZM2 28L2 31L5 31L5 28Z" fill="#000000"/></g></g></svg>
