<?xml version="1.0" encoding="UTF-8"?>
<svg xmlns="http://www.w3.org/2000/svg" version="1.1" width="200" height="200" viewBox="0 0 200 200"><rect x="0" y="0" width="200" height="200" fill="#ffffff"/><g transform="scale(5.405)"><g transform="translate(2,2)"><path fill-rule="evenodd" d="M8 0L8 1L9 1L9 2L8 2L8 5L9 5L9 4L11 4L11 5L10 5L10 10L9 10L9 11L8 11L8 9L9 9L9 8L8 8L8 9L7 9L7 8L6 8L6 9L4 9L4 8L0 8L0 15L1 15L1 16L2 16L2 17L0 17L0 19L2 19L2 21L0 21L0 22L2 22L2 21L4 21L4 20L5 20L5 19L7 19L7 20L6 20L6 21L5 21L5 22L6 22L6 23L4 23L4 22L3 22L3 24L2 24L2 23L1 23L1 24L0 24L0 25L1 25L1 24L2 24L2 25L3 25L3 24L6 24L6 25L8 25L8 26L9 26L9 27L10 27L10 26L12 26L12 28L11 28L11 29L8 29L8 33L10 33L10 31L12 31L12 32L11 32L11 33L12 33L12 32L13 32L13 33L14 33L14 32L13 32L13 30L15 30L15 32L16 32L16 29L15 29L15 28L17 28L17 27L19 27L19 28L18 28L18 29L17 29L17 33L22 33L22 32L19 32L19 31L18 31L18 29L19 29L19 30L22 30L22 31L23 31L23 33L24 33L24 32L26 32L26 33L27 33L27 32L26 32L26 31L27 31L27 30L26 30L26 29L29 29L29 31L32 31L32 32L33 32L33 31L32 31L32 29L33 29L33 27L30 27L30 26L31 26L31 25L29 25L29 24L30 24L30 23L31 23L31 24L32 24L32 25L33 25L33 24L32 24L32 23L33 23L33 21L31 21L31 20L30 20L30 18L31 18L31 19L32 19L32 20L33 20L33 19L32 19L32 18L33 18L33 16L31 16L31 14L32 14L32 13L30 13L30 12L29 12L29 10L27 10L27 9L26 9L26 8L25 8L25 1L24 1L24 0L23 0L23 2L24 2L24 3L22 3L22 4L21 4L21 5L20 5L20 3L21 3L21 2L19 2L19 1L20 1L20 0L16 0L16 1L18 1L18 3L15 3L15 1L14 1L14 2L13 2L13 0L12 0L12 1L11 1L11 0L10 0L10 1L9 1L9 0ZM21 0L21 1L22 1L22 0ZM11 2L11 4L12 4L12 3L13 3L13 2ZM18 3L18 5L14 5L14 6L13 6L13 5L12 5L12 6L11 6L11 8L12 8L12 6L13 6L13 9L14 9L14 10L13 10L13 11L11 11L11 13L9 13L9 12L7 12L7 11L6 11L6 10L7 10L7 9L6 9L6 10L3 10L3 9L1 9L1 12L2 12L2 15L4 15L4 14L3 14L3 11L6 11L6 12L7 12L7 13L5 13L5 12L4 12L4 13L5 13L5 15L6 15L6 16L5 16L5 17L4 17L4 18L2 18L2 19L3 19L3 20L4 20L4 18L5 18L5 17L6 17L6 18L7 18L7 17L10 17L10 16L11 16L11 19L10 19L10 20L9 20L9 18L8 18L8 20L7 20L7 21L6 21L6 22L8 22L8 20L9 20L9 22L10 22L10 21L11 21L11 23L13 23L13 22L14 22L14 23L15 23L15 24L16 24L16 25L17 25L17 26L19 26L19 25L20 25L20 26L21 26L21 27L23 27L23 26L24 26L24 24L27 24L27 23L25 23L25 22L26 22L26 21L27 21L27 22L28 22L28 23L30 23L30 22L31 22L31 21L30 21L30 20L27 20L27 18L28 18L28 19L29 19L29 18L28 18L28 15L29 15L29 16L30 16L30 14L29 14L29 13L28 13L28 11L26 11L26 13L25 13L25 9L23 9L23 8L24 8L24 4L22 4L22 6L21 6L21 7L20 7L20 6L19 6L19 3ZM8 6L8 7L9 7L9 6ZM14 6L14 7L15 7L15 6ZM16 6L16 10L17 10L17 11L19 11L19 12L20 12L20 13L19 13L19 14L18 14L18 15L19 15L19 16L18 16L18 17L17 17L17 16L16 16L16 17L13 17L13 16L12 16L12 14L14 14L14 16L15 16L15 13L16 13L16 14L17 14L17 13L18 13L18 12L17 12L17 13L16 13L16 12L15 12L15 13L14 13L14 11L13 11L13 12L12 12L12 13L11 13L11 14L10 14L10 15L11 15L11 16L12 16L12 17L13 17L13 19L14 19L14 20L13 20L13 21L14 21L14 22L15 22L15 20L16 20L16 17L17 17L17 18L18 18L18 19L17 19L17 21L16 21L16 23L17 23L17 22L18 22L18 23L19 23L19 22L21 22L21 21L22 21L22 20L25 20L25 17L26 17L26 18L27 18L27 14L28 14L28 13L27 13L27 14L26 14L26 15L25 15L25 13L24 13L24 15L25 15L25 17L24 17L24 16L23 16L23 15L22 15L22 14L20 14L20 13L21 13L21 10L22 10L22 8L21 8L21 9L20 9L20 8L19 8L19 6L18 6L18 7L17 7L17 6ZM22 6L22 7L23 7L23 6ZM14 8L14 9L15 9L15 8ZM28 8L28 9L30 9L30 11L31 11L31 12L32 12L32 11L33 11L33 8L32 8L32 9L31 9L31 8ZM11 9L11 10L12 10L12 9ZM17 9L17 10L18 10L18 9ZM2 10L2 11L3 11L3 10ZM19 10L19 11L20 11L20 10ZM23 10L23 12L22 12L22 13L23 13L23 12L24 12L24 10ZM8 13L8 14L9 14L9 13ZM6 14L6 15L7 15L7 16L6 16L6 17L7 17L7 16L8 16L8 15L7 15L7 14ZM20 15L20 16L19 16L19 17L18 17L18 18L19 18L19 21L20 21L20 17L21 17L21 18L22 18L22 17L21 17L21 15ZM31 17L31 18L32 18L32 17ZM14 18L14 19L15 19L15 18ZM23 18L23 19L24 19L24 18ZM11 19L11 20L12 20L12 19ZM21 19L21 20L22 20L22 19ZM23 21L23 22L22 22L22 23L23 23L23 24L22 24L22 25L23 25L23 24L24 24L24 21ZM29 21L29 22L30 22L30 21ZM6 23L6 24L8 24L8 23ZM9 24L9 26L10 26L10 24ZM12 24L12 26L13 26L13 28L12 28L12 29L11 29L11 30L12 30L12 29L13 29L13 28L14 28L14 27L16 27L16 26L14 26L14 24ZM17 24L17 25L19 25L19 24ZM20 24L20 25L21 25L21 24ZM25 25L25 28L28 28L28 25ZM26 26L26 27L27 27L27 26ZM20 28L20 29L21 29L21 28ZM31 28L31 29L32 29L32 28ZM24 30L24 31L26 31L26 30ZM28 32L28 33L31 33L31 32ZM0 0L0 7L7 7L7 0ZM1 1L1 6L6 6L6 1ZM2 2L2 5L5 5L5 2ZM26 0L26 7L33 7L33 0ZM27 1L27 6L32 6L32 1ZM28 2L28 5L31 5L31 2ZM0 26L0 33L7 33L7 26ZM1 27L1 32L6 32L6 27ZM2 28L2 31L5 31L5 28Z" fill="#000000"/></g></g></svg>
