<?xml version="1.0" encoding="UTF-8"?>
<svg xmlns="http://www.w3.org/2000/svg" version="1.1" width="200" height="200" viewBox="0 0 200 200"><rect x="0" y="0" width="200" height="200" fill="#ffffff"/><g transform="scale(5.405)"><g transform="translate(2,2)"><path fill-rule="evenodd" d="M9 0L9 1L8 1L8 2L9 2L9 3L8 3L8 4L10 4L10 7L11 7L11 4L12 4L12 5L14 5L14 7L15 7L15 9L16 9L16 10L14 10L14 8L13 8L13 6L12 6L12 9L13 9L13 10L11 10L11 11L10 11L10 9L11 9L11 8L6 8L6 9L9 9L9 14L10 14L10 15L8 15L8 13L7 13L7 12L8 12L8 11L7 11L7 10L6 10L6 11L7 11L7 12L5 12L5 8L0 8L0 9L1 9L1 10L2 10L2 9L4 9L4 10L3 10L3 11L4 11L4 12L2 12L2 11L0 11L0 12L1 12L1 13L4 13L4 15L3 15L3 14L1 14L1 15L0 15L0 16L1 16L1 17L0 17L0 18L1 18L1 20L4 20L4 21L3 21L3 23L2 23L2 24L3 24L3 25L4 25L4 24L5 24L5 25L8 25L8 27L10 27L10 28L11 28L11 29L12 29L12 30L13 30L13 31L12 31L12 33L13 33L13 32L14 32L14 33L16 33L16 32L17 32L17 33L18 33L18 32L19 32L19 33L27 33L27 30L29 30L29 29L30 29L30 31L29 31L29 32L31 32L31 33L32 33L32 32L31 32L31 31L32 31L32 30L31 30L31 29L30 29L30 28L31 28L31 27L32 27L32 28L33 28L33 27L32 27L32 26L33 26L33 24L32 24L32 26L30 26L30 25L29 25L29 24L31 24L31 23L32 23L32 22L33 22L33 21L32 21L32 20L31 20L31 19L32 19L32 18L33 18L33 17L32 17L32 16L31 16L31 15L32 15L32 14L33 14L33 13L31 13L31 15L30 15L30 13L29 13L29 12L28 12L28 13L29 13L29 14L28 14L28 15L26 15L26 16L25 16L25 14L27 14L27 13L26 13L26 12L27 12L27 11L28 11L28 10L27 10L27 9L28 9L28 8L27 8L27 9L26 9L26 8L23 8L23 6L22 6L22 4L23 4L23 5L24 5L24 4L25 4L25 2L24 2L24 4L23 4L23 3L22 3L22 2L23 2L23 1L24 1L24 0L23 0L23 1L22 1L22 2L21 2L21 0L18 0L18 2L19 2L19 4L18 4L18 3L17 3L17 4L16 4L16 2L17 2L17 0L16 0L16 1L15 1L15 2L14 2L14 3L13 3L13 4L12 4L12 2L13 2L13 1L14 1L14 0L13 0L13 1L11 1L11 2L10 2L10 0ZM19 1L19 2L20 2L20 1ZM10 3L10 4L11 4L11 3ZM20 3L20 5L18 5L18 4L17 4L17 5L16 5L16 4L14 4L14 5L16 5L16 6L15 6L15 7L16 7L16 6L17 6L17 8L18 8L18 9L19 9L19 8L20 8L20 9L22 9L22 10L21 10L21 11L22 11L22 10L23 10L23 11L24 11L24 13L22 13L22 12L20 12L20 10L17 10L17 12L16 12L16 13L15 13L15 14L14 14L14 11L12 11L12 13L11 13L11 12L10 12L10 13L11 13L11 15L10 15L10 16L11 16L11 18L10 18L10 19L8 19L8 18L7 18L7 17L9 17L9 16L8 16L8 15L5 15L5 16L3 16L3 17L1 17L1 18L3 18L3 19L4 19L4 20L7 20L7 21L6 21L6 22L4 22L4 23L3 23L3 24L4 24L4 23L5 23L5 24L8 24L8 22L9 22L9 23L10 23L10 24L11 24L11 26L10 26L10 25L9 25L9 26L10 26L10 27L11 27L11 26L13 26L13 27L12 27L12 29L14 29L14 30L16 30L16 31L17 31L17 32L18 32L18 31L17 31L17 30L19 30L19 31L20 31L20 30L19 30L19 29L20 29L20 28L21 28L21 29L22 29L22 28L23 28L23 31L22 31L22 32L23 32L23 31L24 31L24 32L25 32L25 31L26 31L26 30L27 30L27 29L26 29L26 30L25 30L25 29L24 29L24 28L23 28L23 27L22 27L22 26L24 26L24 24L25 24L25 23L24 23L24 22L26 22L26 21L27 21L27 20L28 20L28 19L27 19L27 18L29 18L29 17L30 17L30 19L31 19L31 16L30 16L30 15L28 15L28 16L26 16L26 17L25 17L25 16L23 16L23 17L22 17L22 16L21 16L21 18L23 18L23 21L22 21L22 20L21 20L21 19L20 19L20 18L18 18L18 19L15 19L15 20L18 20L18 19L20 19L20 20L19 20L19 21L20 21L20 20L21 20L21 21L22 21L22 22L23 22L23 25L22 25L22 24L21 24L21 23L20 23L20 22L18 22L18 23L17 23L17 22L16 22L16 21L14 21L14 19L12 19L12 21L11 21L11 20L10 20L10 19L11 19L11 18L14 18L14 16L15 16L15 14L16 14L16 15L17 15L17 16L16 16L16 17L17 17L17 16L18 16L18 17L20 17L20 15L21 15L21 14L19 14L19 15L18 15L18 14L16 14L16 13L17 13L17 12L18 12L18 13L22 13L22 14L23 14L23 15L24 15L24 14L25 14L25 10L26 10L26 9L24 9L24 10L23 10L23 9L22 9L22 8L20 8L20 5L21 5L21 4L22 4L22 3ZM8 5L8 7L9 7L9 5ZM18 6L18 8L19 8L19 6ZM21 6L21 7L22 7L22 6ZM24 6L24 7L25 7L25 6ZM29 8L29 9L30 9L30 8ZM31 8L31 10L33 10L33 9L32 9L32 8ZM30 11L30 12L31 12L31 11ZM5 13L5 14L7 14L7 13ZM12 13L12 14L13 14L13 15L12 15L12 17L13 17L13 15L14 15L14 14L13 14L13 13ZM6 16L6 17L5 17L5 19L7 19L7 20L8 20L8 21L7 21L7 22L6 22L6 23L7 23L7 22L8 22L8 21L9 21L9 20L8 20L8 19L7 19L7 18L6 18L6 17L7 17L7 16ZM28 16L28 17L29 17L29 16ZM3 17L3 18L4 18L4 17ZM23 17L23 18L24 18L24 17ZM26 17L26 18L25 18L25 20L24 20L24 21L23 21L23 22L24 22L24 21L25 21L25 20L26 20L26 18L27 18L27 17ZM29 20L29 21L28 21L28 23L27 23L27 24L28 24L28 23L29 23L29 22L31 22L31 20ZM0 21L0 25L1 25L1 21ZM10 21L10 22L11 22L11 21ZM12 21L12 22L13 22L13 23L12 23L12 25L14 25L14 26L15 26L15 27L14 27L14 28L15 28L15 29L16 29L16 30L17 30L17 29L18 29L18 28L17 28L17 27L18 27L18 26L20 26L20 27L19 27L19 28L20 28L20 27L21 27L21 28L22 28L22 27L21 27L21 24L19 24L19 25L18 25L18 24L15 24L15 23L16 23L16 22L15 22L15 23L14 23L14 22L13 22L13 21ZM13 23L13 24L14 24L14 25L15 25L15 26L16 26L16 25L15 25L15 24L14 24L14 23ZM25 25L25 28L28 28L28 25ZM26 26L26 27L27 27L27 26ZM8 28L8 33L10 33L10 32L11 32L11 31L10 31L10 29L9 29L9 28ZM16 28L16 29L17 29L17 28ZM24 30L24 31L25 31L25 30ZM9 31L9 32L10 32L10 31ZM14 31L14 32L15 32L15 31ZM0 0L0 7L7 7L7 0ZM1 1L1 6L6 6L6 1ZM2 2L2 5L5 5L5 2ZM26 0L26 7L33 7L33 0ZM27 1L27 6L32 6L32 1ZM28 2L28 5L31 5L31 2ZM0 26L0 33L7 33L7 26ZM1 27L1 32L6 32L6 27ZM2 28L2 31L5 31L5 28Z" fill="#000000"/></g></g></svg>
