<?xml version="1.0" encoding="UTF-8"?>
<svg xmlns="http://www.w3.org/2000/svg" version="1.1" width="200" height="200" viewBox="0 0 200 200"><rect x="0" y="0" width="200" height="200" fill="#ffffff"/><g transform="scale(5.405)"><g transform="translate(2,2)"><path fill-rule="evenodd" d="M9 0L9 1L8 1L8 2L9 2L9 3L8 3L8 4L10 4L10 7L11 7L11 4L12 4L12 5L13 5L13 6L12 6L12 9L13 9L13 8L14 8L14 9L15 9L15 10L17 10L17 9L18 9L18 8L17 8L17 9L16 9L16 7L17 7L17 5L16 5L16 4L18 4L18 5L21 5L21 6L20 6L20 7L19 7L19 6L18 6L18 7L19 7L19 8L20 8L20 9L19 9L19 10L20 10L20 12L26 12L26 11L23 11L23 10L24 10L24 8L25 8L25 10L27 10L27 11L28 11L28 12L27 12L27 13L26 13L26 14L25 14L25 15L26 15L26 16L28 16L28 17L25 17L25 18L27 18L27 19L26 19L26 20L27 20L27 19L30 19L30 20L28 20L28 21L25 21L25 20L23 20L23 19L22 19L22 17L24 17L24 15L23 15L23 14L24 14L24 13L23 13L23 14L22 14L22 15L20 15L20 16L22 16L22 17L18 17L18 16L17 16L17 14L16 14L16 13L12 13L12 11L13 11L13 10L11 10L11 11L10 11L10 9L11 9L11 8L6 8L6 9L5 9L5 8L0 8L0 9L4 9L4 10L3 10L3 11L4 11L4 13L5 13L5 14L3 14L3 15L2 15L2 14L1 14L1 13L0 13L0 14L1 14L1 16L2 16L2 17L1 17L1 18L0 18L0 19L1 19L1 18L3 18L3 19L4 19L4 21L3 21L3 20L1 20L1 21L0 21L0 25L1 25L1 21L3 21L3 22L2 22L2 23L4 23L4 24L3 24L3 25L5 25L5 24L6 24L6 25L7 25L7 24L10 24L10 22L11 22L11 21L12 21L12 22L13 22L13 23L12 23L12 25L13 25L13 24L14 24L14 25L17 25L17 26L15 26L15 27L14 27L14 28L15 28L15 29L12 29L12 27L13 27L13 26L11 26L11 25L8 25L8 27L9 27L9 28L8 28L8 33L10 33L10 31L11 31L11 30L9 30L9 29L12 29L12 30L13 30L13 31L12 31L12 33L13 33L13 32L14 32L14 33L17 33L17 31L18 31L18 32L19 32L19 33L20 33L20 32L22 32L22 33L23 33L23 31L24 31L24 29L28 29L28 30L25 30L25 32L24 32L24 33L25 33L25 32L26 32L26 33L27 33L27 32L28 32L28 33L29 33L29 31L28 31L28 30L29 30L29 29L30 29L30 30L33 30L33 28L32 28L32 29L30 29L30 28L31 28L31 27L32 27L32 26L33 26L33 24L32 24L32 26L29 26L29 25L30 25L30 24L31 24L31 23L32 23L32 22L33 22L33 21L32 21L32 20L31 20L31 19L32 19L32 18L33 18L33 17L32 17L32 16L31 16L31 15L32 15L32 14L33 14L33 13L31 13L31 15L30 15L30 13L29 13L29 10L28 10L28 8L27 8L27 9L26 9L26 8L25 8L25 6L24 6L24 8L23 8L23 5L24 5L24 4L23 4L23 3L25 3L25 2L23 2L23 1L24 1L24 0L20 0L20 2L18 2L18 3L17 3L17 2L16 2L16 4L12 4L12 2L13 2L13 1L11 1L11 2L10 2L10 0ZM15 0L15 1L17 1L17 0ZM18 0L18 1L19 1L19 0ZM14 2L14 3L15 3L15 2ZM20 2L20 3L18 3L18 4L20 4L20 3L21 3L21 4L22 4L22 5L23 5L23 4L22 4L22 3L23 3L23 2L22 2L22 3L21 3L21 2ZM10 3L10 4L11 4L11 3ZM8 5L8 7L9 7L9 5ZM13 6L13 7L14 7L14 8L15 8L15 7L16 7L16 6L15 6L15 7L14 7L14 6ZM21 6L21 7L20 7L20 8L21 8L21 10L23 10L23 9L22 9L22 8L21 8L21 7L22 7L22 6ZM29 8L29 9L30 9L30 8ZM31 8L31 10L33 10L33 9L32 9L32 8ZM6 9L6 10L5 10L5 11L6 11L6 12L5 12L5 13L6 13L6 14L5 14L5 16L4 16L4 15L3 15L3 16L4 16L4 17L3 17L3 18L4 18L4 19L5 19L5 21L4 21L4 23L5 23L5 21L6 21L6 22L7 22L7 23L6 23L6 24L7 24L7 23L8 23L8 22L7 22L7 21L10 21L10 20L7 20L7 19L8 19L8 17L9 17L9 19L10 19L10 18L13 18L13 19L12 19L12 21L15 21L15 22L17 22L17 23L16 23L16 24L18 24L18 23L20 23L20 22L17 22L17 21L15 21L15 20L14 20L14 19L15 19L15 18L16 18L16 20L18 20L18 21L20 21L20 20L21 20L21 21L22 21L22 22L23 22L23 23L22 23L22 24L20 24L20 25L21 25L21 26L24 26L24 25L22 25L22 24L23 24L23 23L24 23L24 24L27 24L27 23L28 23L28 24L30 24L30 23L29 23L29 22L30 22L30 21L31 21L31 20L30 20L30 21L28 21L28 22L26 22L26 23L25 23L25 21L24 21L24 22L23 22L23 21L22 21L22 20L21 20L21 18L19 18L19 19L18 19L18 18L17 18L17 17L14 17L14 16L16 16L16 15L14 15L14 16L13 16L13 17L12 17L12 15L13 15L13 14L12 14L12 13L11 13L11 12L10 12L10 13L9 13L9 11L6 11L6 10L7 10L7 9ZM0 11L0 12L1 12L1 11ZM14 11L14 12L15 12L15 11ZM16 11L16 12L17 12L17 13L18 13L18 15L19 15L19 14L21 14L21 13L18 13L18 12L19 12L19 11L18 11L18 12L17 12L17 11ZM30 11L30 12L31 12L31 11ZM6 12L6 13L7 13L7 14L6 14L6 15L7 15L7 16L5 16L5 17L7 17L7 16L9 16L9 17L10 17L10 16L11 16L11 13L10 13L10 14L8 14L8 13L7 13L7 12ZM28 13L28 15L29 15L29 17L28 17L28 18L29 18L29 17L30 17L30 19L31 19L31 16L30 16L30 15L29 15L29 13ZM6 18L6 19L7 19L7 18ZM19 19L19 20L20 20L20 19ZM6 20L6 21L7 21L7 20ZM14 23L14 24L15 24L15 23ZM25 25L25 28L28 28L28 25ZM9 26L9 27L11 27L11 26ZM18 26L18 27L15 27L15 28L16 28L16 29L17 29L17 30L19 30L19 31L21 31L21 30L22 30L22 31L23 31L23 29L24 29L24 28L23 28L23 29L22 29L22 28L20 28L20 30L19 30L19 27L20 27L20 26ZM26 26L26 27L27 27L27 26ZM29 27L29 28L30 28L30 27ZM14 31L14 32L16 32L16 31ZM26 31L26 32L27 32L27 31ZM30 31L30 32L31 32L31 33L32 33L32 32L31 32L31 31ZM0 0L0 7L7 7L7 0ZM1 1L1 6L6 6L6 1ZM2 2L2 5L5 5L5 2ZM26 0L26 7L33 7L33 0ZM27 1L27 6L32 6L32 1ZM28 2L28 5L31 5L31 2ZM0 26L0 33L7 33L7 26ZM1 27L1 32L6 32L6 27ZM2 28L2 31L5 31L5 28Z" fill="#000000"/></g></g></svg>
