<?xml version="1.0" encoding="UTF-8"?>
<svg xmlns="http://www.w3.org/2000/svg" version="1.1" width="200" height="200" viewBox="0 0 200 200"><rect x="0" y="0" width="200" height="200" fill="#ffffff"/><g transform="scale(5.405)"><g transform="translate(2,2)"><path fill-rule="evenodd" d="M10 0L10 1L8 1L8 3L9 3L9 4L8 4L8 8L6 8L6 9L7 9L7 10L4 10L4 8L3 8L3 10L2 10L2 8L0 8L0 9L1 9L1 10L0 10L0 11L1 11L1 12L0 12L0 14L1 14L1 15L4 15L4 16L1 16L1 17L0 17L0 18L1 18L1 20L0 20L0 21L1 21L1 20L2 20L2 19L3 19L3 21L2 21L2 22L0 22L0 23L1 23L1 24L0 24L0 25L1 25L1 24L2 24L2 25L3 25L3 23L4 23L4 24L5 24L5 25L8 25L8 27L9 27L9 26L12 26L12 28L11 28L11 27L10 27L10 28L9 28L9 29L8 29L8 30L9 30L9 31L8 31L8 33L9 33L9 32L10 32L10 31L11 31L11 33L13 33L13 32L14 32L14 33L15 33L15 32L14 32L14 30L17 30L17 33L18 33L18 31L19 31L19 33L20 33L20 32L21 32L21 33L22 33L22 31L23 31L23 33L25 33L25 32L26 32L26 33L28 33L28 31L29 31L29 33L30 33L30 31L29 31L29 29L30 29L30 27L31 27L31 31L33 31L33 27L32 27L32 26L33 26L33 25L32 25L32 26L31 26L31 25L30 25L30 24L28 24L28 20L30 20L30 18L31 18L31 19L33 19L33 18L31 18L31 17L29 17L29 16L30 16L30 15L29 15L29 13L27 13L27 10L28 10L28 12L29 12L29 10L31 10L31 12L32 12L32 13L30 13L30 14L31 14L31 16L32 16L32 17L33 17L33 16L32 16L32 14L33 14L33 9L32 9L32 8L30 8L30 9L29 9L29 8L26 8L26 10L25 10L25 9L24 9L24 10L25 10L25 11L26 11L26 14L25 14L25 13L24 13L24 14L23 14L23 12L24 12L24 11L23 11L23 10L22 10L22 11L21 11L21 12L20 12L20 10L21 10L21 9L22 9L22 7L23 7L23 8L24 8L24 7L25 7L25 5L24 5L24 4L25 4L25 1L24 1L24 0L23 0L23 2L22 2L22 1L20 1L20 2L19 2L19 0L18 0L18 1L16 1L16 0L14 0L14 1L13 1L13 2L14 2L14 4L13 4L13 3L12 3L12 7L11 7L11 4L10 4L10 3L9 3L9 2L11 2L11 0ZM14 1L14 2L15 2L15 3L17 3L17 4L16 4L16 6L15 6L15 5L13 5L13 7L12 7L12 8L14 8L14 9L15 9L15 10L13 10L13 11L14 11L14 12L15 12L15 15L14 15L14 13L13 13L13 12L12 12L12 16L11 16L11 13L10 13L10 12L9 12L9 11L11 11L11 8L10 8L10 5L9 5L9 8L8 8L8 9L10 9L10 10L9 10L9 11L8 11L8 10L7 10L7 11L5 11L5 13L3 13L3 14L4 14L4 15L5 15L5 14L7 14L7 15L6 15L6 16L4 16L4 17L3 17L3 18L4 18L4 19L5 19L5 18L7 18L7 17L6 17L6 16L8 16L8 15L10 15L10 17L9 17L9 18L10 18L10 19L11 19L11 21L12 21L12 22L11 22L11 24L9 24L9 22L8 22L8 24L9 24L9 25L12 25L12 24L13 24L13 20L14 20L14 21L15 21L15 23L14 23L14 24L15 24L15 26L14 26L14 25L13 25L13 27L14 27L14 28L15 28L15 29L17 29L17 30L18 30L18 29L19 29L19 31L20 31L20 26L19 26L19 25L17 25L17 24L21 24L21 23L22 23L22 25L21 25L21 27L23 27L23 29L21 29L21 31L22 31L22 30L23 30L23 29L24 29L24 26L22 26L22 25L23 25L23 23L26 23L26 21L27 21L27 20L28 20L28 19L29 19L29 17L28 17L28 18L27 18L27 17L25 17L25 16L24 16L24 15L25 15L25 14L24 14L24 15L23 15L23 14L22 14L22 13L21 13L21 14L19 14L19 13L20 13L20 12L19 12L19 10L20 10L20 8L21 8L21 7L22 7L22 6L21 6L21 7L20 7L20 6L19 6L19 7L20 7L20 8L17 8L17 7L18 7L18 3L17 3L17 2L15 2L15 1ZM20 2L20 3L21 3L21 4L19 4L19 5L23 5L23 7L24 7L24 5L23 5L23 4L22 4L22 2ZM23 2L23 3L24 3L24 2ZM14 6L14 7L15 7L15 8L16 8L16 7L17 7L17 6L16 6L16 7L15 7L15 6ZM17 9L17 10L16 10L16 11L15 11L15 12L17 12L17 13L16 13L16 14L17 14L17 16L16 16L16 15L15 15L15 16L14 16L14 15L13 15L13 16L12 16L12 18L11 18L11 19L12 19L12 20L13 20L13 19L14 19L14 17L17 17L17 18L18 18L18 19L17 19L17 20L20 20L20 22L19 22L19 23L20 23L20 22L22 22L22 23L23 23L23 22L22 22L22 19L23 19L23 20L24 20L24 22L25 22L25 19L23 19L23 18L22 18L22 17L24 17L24 18L25 18L25 17L24 17L24 16L23 16L23 15L22 15L22 14L21 14L21 15L19 15L19 14L18 14L18 12L17 12L17 10L19 10L19 9ZM28 9L28 10L29 10L29 9ZM31 9L31 10L32 10L32 9ZM3 10L3 11L2 11L2 12L1 12L1 14L2 14L2 12L3 12L3 11L4 11L4 10ZM7 11L7 12L6 12L6 13L7 13L7 14L8 14L8 13L9 13L9 12L8 12L8 11ZM27 14L27 15L28 15L28 14ZM13 16L13 17L14 17L14 16ZM18 16L18 18L19 18L19 19L20 19L20 20L21 20L21 19L22 19L22 18L21 18L21 17L19 17L19 16ZM4 17L4 18L5 18L5 17ZM20 18L20 19L21 19L21 18ZM26 18L26 20L27 20L27 18ZM6 19L6 20L5 20L5 21L6 21L6 22L4 22L4 21L3 21L3 22L2 22L2 23L3 23L3 22L4 22L4 23L5 23L5 24L7 24L7 23L6 23L6 22L7 22L7 21L6 21L6 20L9 20L9 21L10 21L10 20L9 20L9 19ZM15 19L15 20L16 20L16 19ZM31 20L31 21L32 21L32 23L31 23L31 22L30 22L30 21L29 21L29 23L31 23L31 24L33 24L33 21L32 21L32 20ZM16 23L16 24L17 24L17 23ZM16 25L16 26L17 26L17 25ZM25 25L25 28L28 28L28 25ZM26 26L26 27L27 27L27 26ZM29 26L29 27L30 27L30 26ZM17 27L17 28L19 28L19 27ZM12 28L12 29L9 29L9 30L11 30L11 31L12 31L12 32L13 32L13 30L14 30L14 29L13 29L13 28ZM27 29L27 30L26 30L26 32L27 32L27 31L28 31L28 29ZM24 30L24 31L25 31L25 30ZM31 32L31 33L32 33L32 32ZM0 0L0 7L7 7L7 0ZM1 1L1 6L6 6L6 1ZM2 2L2 5L5 5L5 2ZM26 0L26 7L33 7L33 0ZM27 1L27 6L32 6L32 1ZM28 2L28 5L31 5L31 2ZM0 26L0 33L7 33L7 26ZM1 27L1 32L6 32L6 27ZM2 28L2 31L5 31L5 28Z" fill="#000000"/></g></g></svg>
