<?xml version="1.0" encoding="UTF-8"?>
<svg xmlns="http://www.w3.org/2000/svg" version="1.1" width="200" height="200" viewBox="0 0 200 200"><rect x="0" y="0" width="200" height="200" fill="#ffffff"/><g transform="scale(5.405)"><g transform="translate(2,2)"><path fill-rule="evenodd" d="M10 0L10 1L8 1L8 3L9 3L9 4L8 4L8 8L6 8L6 9L8 9L8 8L9 8L9 5L10 5L10 8L11 8L11 11L9 11L9 10L10 10L10 9L9 9L9 10L5 10L5 9L4 9L4 8L3 8L3 10L2 10L2 12L1 12L1 11L0 11L0 14L1 14L1 15L0 15L0 21L1 21L1 22L0 22L0 23L1 23L1 24L0 24L0 25L1 25L1 24L2 24L2 25L4 25L4 24L3 24L3 23L4 23L4 22L2 22L2 19L4 19L4 18L6 18L6 19L5 19L5 20L6 20L6 21L7 21L7 22L6 22L6 23L5 23L5 25L8 25L8 27L11 27L11 26L12 26L12 28L11 28L11 29L10 29L10 28L9 28L9 29L8 29L8 30L9 30L9 31L8 31L8 33L11 33L11 32L12 32L12 31L11 31L11 29L13 29L13 31L14 31L14 29L15 29L15 28L17 28L17 29L16 29L16 32L19 32L19 31L18 31L18 28L19 28L19 27L17 27L17 26L16 26L16 27L14 27L14 26L13 26L13 24L14 24L14 23L13 23L13 24L12 24L12 25L11 25L11 26L9 26L9 25L10 25L10 24L11 24L11 23L10 23L10 21L8 21L8 20L6 20L6 19L9 19L9 20L10 20L10 18L11 18L11 19L12 19L12 20L13 20L13 19L15 19L15 18L14 18L14 16L15 16L15 14L16 14L16 13L18 13L18 12L17 12L17 11L14 11L14 10L13 10L13 9L15 9L15 8L16 8L16 10L18 10L18 9L17 9L17 8L19 8L19 6L20 6L20 8L21 8L21 9L20 9L20 10L19 10L19 12L20 12L20 11L21 11L21 13L19 13L19 14L20 14L20 15L21 15L21 18L22 18L22 17L23 17L23 18L24 18L24 19L23 19L23 21L24 21L24 23L23 23L23 22L22 22L22 23L20 23L20 22L21 22L21 21L22 21L22 19L21 19L21 20L19 20L19 18L18 18L18 16L19 16L19 17L20 17L20 16L19 16L19 15L18 15L18 14L17 14L17 16L16 16L16 20L19 20L19 21L20 21L20 22L19 22L19 23L20 23L20 24L21 24L21 25L19 25L19 24L17 24L17 23L18 23L18 22L17 22L17 21L16 21L16 23L15 23L15 24L16 24L16 25L19 25L19 26L20 26L20 28L21 28L21 29L23 29L23 31L22 31L22 30L20 30L20 29L19 29L19 30L20 30L20 33L22 33L22 32L24 32L24 33L27 33L27 32L28 32L28 33L29 33L29 31L33 31L33 28L32 28L32 26L33 26L33 25L32 25L32 26L31 26L31 25L29 25L29 24L30 24L30 22L31 22L31 21L32 21L32 23L31 23L31 24L33 24L33 21L32 21L32 20L31 20L31 21L30 21L30 18L31 18L31 19L33 19L33 18L31 18L31 17L29 17L29 16L30 16L30 14L31 14L31 16L32 16L32 17L33 17L33 16L32 16L32 14L33 14L33 9L32 9L32 8L30 8L30 9L29 9L29 8L26 8L26 11L25 11L25 9L23 9L23 10L24 10L24 11L21 11L21 10L22 10L22 8L23 8L23 5L24 5L24 8L25 8L25 5L24 5L24 4L23 4L23 3L24 3L24 2L25 2L25 1L24 1L24 0L22 0L22 1L21 1L21 0L17 0L17 1L16 1L16 0L14 0L14 1L15 1L15 2L14 2L14 5L13 5L13 3L12 3L12 7L11 7L11 4L10 4L10 3L9 3L9 2L11 2L11 0ZM17 1L17 2L15 2L15 3L17 3L17 7L16 7L16 6L15 6L15 7L16 7L16 8L17 8L17 7L18 7L18 6L19 6L19 5L20 5L20 6L21 6L21 7L22 7L22 5L23 5L23 4L22 4L22 3L23 3L23 2L21 2L21 3L20 3L20 1L19 1L19 2L18 2L18 1ZM17 2L17 3L18 3L18 5L19 5L19 3L18 3L18 2ZM21 4L21 5L22 5L22 4ZM13 6L13 7L12 7L12 8L14 8L14 6ZM0 8L0 10L1 10L1 9L2 9L2 8ZM27 9L27 10L29 10L29 9ZM30 9L30 11L28 11L28 13L27 13L27 17L26 17L26 15L25 15L25 14L26 14L26 13L25 13L25 11L24 11L24 12L22 12L22 13L23 13L23 14L22 14L22 15L23 15L23 14L24 14L24 15L25 15L25 20L26 20L26 21L27 21L27 22L28 22L28 23L27 23L27 24L29 24L29 22L30 22L30 21L29 21L29 19L28 19L28 18L29 18L29 17L28 17L28 15L29 15L29 14L28 14L28 13L29 13L29 12L30 12L30 13L32 13L32 12L31 12L31 11L32 11L32 9ZM3 11L3 14L5 14L5 16L7 16L7 15L8 15L8 16L10 16L10 17L9 17L9 18L10 18L10 17L11 17L11 18L12 18L12 16L13 16L13 12L12 12L12 16L11 16L11 15L10 15L10 14L11 14L11 13L10 13L10 12L9 12L9 13L8 13L8 11L6 11L6 12L7 12L7 13L6 13L6 14L5 14L5 13L4 13L4 11ZM15 12L15 13L14 13L14 14L15 14L15 13L16 13L16 12ZM1 13L1 14L2 14L2 13ZM9 13L9 14L8 14L8 15L9 15L9 14L10 14L10 13ZM24 13L24 14L25 14L25 13ZM6 14L6 15L7 15L7 14ZM3 15L3 16L1 16L1 18L3 18L3 17L4 17L4 15ZM23 16L23 17L24 17L24 16ZM6 17L6 18L7 18L7 17ZM27 17L27 18L26 18L26 20L27 20L27 18L28 18L28 17ZM17 18L17 19L18 19L18 18ZM14 20L14 21L13 21L13 22L15 22L15 20ZM11 21L11 22L12 22L12 21ZM7 22L7 23L6 23L6 24L7 24L7 23L8 23L8 22ZM25 22L25 23L24 23L24 24L22 24L22 25L23 25L23 26L21 26L21 27L23 27L23 29L24 29L24 24L26 24L26 22ZM9 23L9 24L10 24L10 23ZM25 25L25 28L28 28L28 25ZM26 26L26 27L27 27L27 26ZM29 26L29 29L32 29L32 28L31 28L31 27L30 27L30 26ZM13 28L13 29L14 29L14 28ZM9 29L9 30L10 30L10 29ZM24 30L24 31L27 31L27 30ZM9 31L9 32L10 32L10 31ZM13 32L13 33L14 33L14 32ZM31 32L31 33L32 33L32 32ZM0 0L0 7L7 7L7 0ZM1 1L1 6L6 6L6 1ZM2 2L2 5L5 5L5 2ZM26 0L26 7L33 7L33 0ZM27 1L27 6L32 6L32 1ZM28 2L28 5L31 5L31 2ZM0 26L0 33L7 33L7 26ZM1 27L1 32L6 32L6 27ZM2 28L2 31L5 31L5 28Z" fill="#000000"/></g></g></svg>
