<?xml version="1.0" encoding="UTF-8"?>
<svg xmlns="http://www.w3.org/2000/svg" version="1.1" width="200" height="200" viewBox="0 0 200 200"><rect x="0" y="0" width="200" height="200" fill="#ffffff"/><g transform="scale(5.405)"><g transform="translate(2,2)"><path fill-rule="evenodd" d="M9 0L9 1L11 1L11 2L9 2L9 3L8 3L8 5L9 5L9 6L8 6L8 7L9 7L9 9L8 9L8 8L5 8L5 9L4 9L4 10L5 10L5 11L4 11L4 12L6 12L6 13L8 13L8 12L9 12L9 13L10 13L10 14L11 14L11 12L12 12L12 11L13 11L13 10L14 10L14 11L16 11L16 12L14 12L14 13L12 13L12 14L13 14L13 15L12 15L12 17L13 17L13 15L15 15L15 16L14 16L14 19L15 19L15 20L14 20L14 21L15 21L15 22L13 22L13 21L12 21L12 19L13 19L13 18L12 18L12 19L11 19L11 18L10 18L10 19L11 19L11 20L9 20L9 21L12 21L12 22L13 22L13 23L12 23L12 24L10 24L10 23L11 23L11 22L9 22L9 23L8 23L8 22L6 22L6 23L7 23L7 24L6 24L6 25L8 25L8 28L9 28L9 30L10 30L10 32L9 32L9 31L8 31L8 33L10 33L10 32L11 32L11 31L12 31L12 32L13 32L13 33L14 33L14 32L15 32L15 33L18 33L18 32L16 32L16 31L17 31L17 30L19 30L19 31L20 31L20 33L21 33L21 30L22 30L22 29L23 29L23 30L24 30L24 29L28 29L28 31L29 31L29 33L30 33L30 32L31 32L31 33L32 33L32 32L31 32L31 30L30 30L30 29L29 29L29 28L31 28L31 29L32 29L32 28L33 28L33 27L32 27L32 26L33 26L33 25L32 25L32 24L31 24L31 23L32 23L32 20L31 20L31 19L30 19L30 20L31 20L31 23L30 23L30 21L29 21L29 18L30 18L30 17L29 17L29 16L28 16L28 15L29 15L29 14L28 14L28 13L27 13L27 12L26 12L26 14L25 14L25 16L24 16L24 17L23 17L23 16L22 16L22 17L23 17L23 19L22 19L22 18L21 18L21 13L20 13L20 12L21 12L21 11L22 11L22 12L23 12L23 14L22 14L22 15L23 15L23 14L24 14L24 12L25 12L25 11L26 11L26 9L25 9L25 10L24 10L24 11L22 11L22 10L23 10L23 9L24 9L24 7L25 7L25 6L24 6L24 7L23 7L23 5L24 5L24 4L25 4L25 3L23 3L23 2L21 2L21 1L23 1L23 0L20 0L20 3L19 3L19 4L18 4L18 3L17 3L17 2L18 2L18 1L19 1L19 0L18 0L18 1L17 1L17 2L14 2L14 3L13 3L13 4L12 4L12 2L13 2L13 1L15 1L15 0L13 0L13 1L12 1L12 0ZM9 3L9 5L10 5L10 3ZM14 3L14 5L12 5L12 4L11 4L11 7L10 7L10 6L9 6L9 7L10 7L10 8L11 8L11 10L10 10L10 9L9 9L9 10L10 10L10 11L9 11L9 12L10 12L10 11L11 11L11 10L13 10L13 9L12 9L12 6L13 6L13 8L14 8L14 6L15 6L15 8L16 8L16 11L17 11L17 13L19 13L19 12L20 12L20 11L21 11L21 10L22 10L22 8L23 8L23 7L22 7L22 6L21 6L21 8L20 8L20 5L19 5L19 7L18 7L18 4L17 4L17 3ZM22 3L22 4L21 4L21 5L23 5L23 3ZM16 4L16 8L17 8L17 9L18 9L18 10L20 10L20 9L18 9L18 8L17 8L17 4ZM0 8L0 9L1 9L1 10L0 10L0 12L2 12L2 11L3 11L3 10L2 10L2 8ZM28 8L28 9L27 9L27 10L28 10L28 11L30 11L30 12L31 12L31 15L30 15L30 16L31 16L31 18L32 18L32 19L33 19L33 17L32 17L32 16L33 16L33 15L32 15L32 14L33 14L33 12L31 12L31 11L32 11L32 9L30 9L30 8ZM5 9L5 10L7 10L7 11L6 11L6 12L7 12L7 11L8 11L8 9ZM29 9L29 10L30 10L30 11L31 11L31 10L30 10L30 9ZM1 10L1 11L2 11L2 10ZM18 11L18 12L19 12L19 11ZM0 13L0 14L2 14L2 13ZM3 13L3 15L2 15L2 16L1 16L1 15L0 15L0 19L2 19L2 20L5 20L5 18L6 18L6 19L7 19L7 18L8 18L8 16L9 16L9 15L8 15L8 16L6 16L6 15L7 15L7 14L5 14L5 13ZM14 13L14 14L16 14L16 13ZM17 14L17 16L18 16L18 17L20 17L20 16L19 16L19 15L20 15L20 14ZM4 15L4 16L2 16L2 19L4 19L4 18L5 18L5 17L6 17L6 18L7 18L7 17L6 17L6 16L5 16L5 15ZM10 15L10 16L11 16L11 15ZM26 15L26 17L27 17L27 18L29 18L29 17L27 17L27 15ZM31 15L31 16L32 16L32 15ZM3 17L3 18L4 18L4 17ZM24 17L24 18L25 18L25 17ZM20 18L20 19L16 19L16 20L18 20L18 21L19 21L19 20L21 20L21 21L20 21L20 22L18 22L18 23L17 23L17 25L18 25L18 23L20 23L20 25L21 25L21 26L23 26L23 24L22 24L22 23L20 23L20 22L21 22L21 21L22 21L22 19L21 19L21 18ZM23 19L23 21L24 21L24 22L23 22L23 23L24 23L24 22L26 22L26 24L27 24L27 23L28 23L28 24L29 24L29 22L27 22L27 20L26 20L26 19ZM0 20L0 25L4 25L4 24L1 24L1 22L3 22L3 21L1 21L1 20ZM6 20L6 21L8 21L8 20ZM24 20L24 21L26 21L26 20ZM4 21L4 23L5 23L5 21ZM16 21L16 22L17 22L17 21ZM13 23L13 24L14 24L14 25L11 25L11 26L9 26L9 28L10 28L10 29L11 29L11 30L12 30L12 31L13 31L13 32L14 32L14 31L15 31L15 30L14 30L14 29L15 29L15 28L16 28L16 29L17 29L17 28L18 28L18 29L19 29L19 30L20 30L20 29L19 29L19 27L20 27L20 28L21 28L21 29L22 29L22 28L23 28L23 29L24 29L24 28L23 28L23 27L20 27L20 26L18 26L18 27L17 27L17 26L16 26L16 27L15 27L15 24L16 24L16 23L15 23L15 24L14 24L14 23ZM8 24L8 25L9 25L9 24ZM30 24L30 25L29 25L29 26L32 26L32 25L31 25L31 24ZM25 25L25 28L28 28L28 25ZM11 26L11 27L10 27L10 28L11 28L11 29L12 29L12 30L13 30L13 29L14 29L14 28L12 28L12 27L14 27L14 26ZM26 26L26 27L27 27L27 26ZM31 27L31 28L32 28L32 27ZM25 30L25 32L22 32L22 33L28 33L28 32L27 32L27 31L26 31L26 30ZM29 30L29 31L30 31L30 30ZM32 30L32 31L33 31L33 30ZM0 0L0 7L7 7L7 0ZM1 1L1 6L6 6L6 1ZM2 2L2 5L5 5L5 2ZM26 0L26 7L33 7L33 0ZM27 1L27 6L32 6L32 1ZM28 2L28 5L31 5L31 2ZM0 26L0 33L7 33L7 26ZM1 27L1 32L6 32L6 27ZM2 28L2 31L5 31L5 28Z" fill="#000000"/></g></g></svg>
