<?xml version="1.0" encoding="UTF-8"?>
<svg xmlns="http://www.w3.org/2000/svg" version="1.1" width="200" height="200" viewBox="0 0 200 200"><rect x="0" y="0" width="200" height="200" fill="#ffffff"/><g transform="scale(5.405)"><g transform="translate(2,2)"><path fill-rule="evenodd" d="M9 0L9 1L8 1L8 2L9 2L9 3L8 3L8 4L10 4L10 7L11 7L11 4L12 4L12 5L13 5L13 6L12 6L12 9L13 9L13 8L14 8L14 9L15 9L15 10L17 10L17 9L18 9L18 8L17 8L17 9L16 9L16 7L17 7L17 5L16 5L16 4L18 4L18 5L21 5L21 6L20 6L20 7L19 7L19 6L18 6L18 7L19 7L19 8L20 8L20 9L19 9L19 10L20 10L20 12L25 12L25 11L26 11L26 12L28 12L28 13L25 13L25 14L27 14L27 15L29 15L29 14L28 14L28 13L30 13L30 12L31 12L31 11L32 11L32 10L33 10L33 9L32 9L32 8L31 8L31 9L30 9L30 8L29 8L29 9L30 9L30 10L29 10L29 11L28 11L28 8L27 8L27 9L26 9L26 8L25 8L25 6L24 6L24 8L23 8L23 5L24 5L24 4L23 4L23 3L25 3L25 2L23 2L23 1L24 1L24 0L20 0L20 2L18 2L18 3L17 3L17 2L16 2L16 4L12 4L12 2L13 2L13 1L11 1L11 2L10 2L10 0ZM15 0L15 1L17 1L17 0ZM18 0L18 1L19 1L19 0ZM14 2L14 3L15 3L15 2ZM20 2L20 3L18 3L18 4L20 4L20 3L21 3L21 4L22 4L22 5L23 5L23 4L22 4L22 3L23 3L23 2L22 2L22 3L21 3L21 2ZM10 3L10 4L11 4L11 3ZM8 5L8 7L9 7L9 5ZM13 6L13 7L14 7L14 8L15 8L15 7L16 7L16 6L15 6L15 7L14 7L14 6ZM21 6L21 7L20 7L20 8L21 8L21 10L23 10L23 11L25 11L25 10L26 10L26 9L25 9L25 8L24 8L24 10L23 10L23 9L22 9L22 8L21 8L21 7L22 7L22 6ZM0 8L0 9L1 9L1 10L2 10L2 11L0 11L0 12L3 12L3 13L0 13L0 16L2 16L2 19L1 19L1 17L0 17L0 19L1 19L1 20L0 20L0 25L1 25L1 21L2 21L2 23L3 23L3 22L4 22L4 24L3 24L3 25L4 25L4 24L6 24L6 25L8 25L8 27L9 27L9 28L8 28L8 33L10 33L10 32L11 32L11 29L12 29L12 30L13 30L13 31L12 31L12 33L13 33L13 32L14 32L14 33L17 33L17 31L18 31L18 30L17 30L17 29L16 29L16 28L15 28L15 27L18 27L18 26L20 26L20 27L19 27L19 30L20 30L20 28L22 28L22 29L23 29L23 31L22 31L22 30L21 30L21 31L19 31L19 33L20 33L20 32L22 32L22 33L23 33L23 31L24 31L24 29L27 29L27 30L25 30L25 31L27 31L27 32L24 32L24 33L28 33L28 32L29 32L29 33L30 33L30 32L31 32L31 33L32 33L32 32L31 32L31 30L33 30L33 28L32 28L32 29L31 29L31 30L29 30L29 29L30 29L30 28L31 28L31 27L32 27L32 26L33 26L33 24L32 24L32 26L31 26L31 25L30 25L30 24L31 24L31 23L32 23L32 22L33 22L33 21L32 21L32 20L31 20L31 19L32 19L32 18L33 18L33 17L32 17L32 16L31 16L31 15L32 15L32 14L33 14L33 13L31 13L31 15L30 15L30 16L31 16L31 19L30 19L30 17L29 17L29 16L28 16L28 17L26 17L26 18L25 18L25 19L26 19L26 20L28 20L28 21L25 21L25 20L23 20L23 19L22 19L22 17L24 17L24 15L23 15L23 14L24 14L24 13L23 13L23 14L22 14L22 15L20 15L20 16L22 16L22 17L18 17L18 16L17 16L17 14L16 14L16 13L12 13L12 11L13 11L13 10L11 10L11 11L10 11L10 9L11 9L11 8L6 8L6 9L5 9L5 8ZM3 9L3 10L5 10L5 11L6 11L6 12L4 12L4 13L6 13L6 14L7 14L7 15L6 15L6 16L4 16L4 15L3 15L3 14L1 14L1 15L2 15L2 16L4 16L4 17L3 17L3 19L2 19L2 20L3 20L3 21L4 21L4 19L5 19L5 20L7 20L7 21L6 21L6 22L5 22L5 23L6 23L6 24L7 24L7 23L9 23L9 21L8 21L8 19L5 19L5 17L6 17L6 18L9 18L9 16L10 16L10 17L11 17L11 18L10 18L10 21L11 21L11 22L10 22L10 23L11 23L11 25L9 25L9 24L8 24L8 25L9 25L9 26L10 26L10 27L11 27L11 26L13 26L13 27L12 27L12 29L15 29L15 28L14 28L14 27L15 27L15 26L17 26L17 25L14 25L14 24L15 24L15 23L14 23L14 24L13 24L13 25L12 25L12 23L13 23L13 22L12 22L12 21L15 21L15 22L17 22L17 23L16 23L16 24L18 24L18 23L20 23L20 22L17 22L17 21L15 21L15 20L14 20L14 19L15 19L15 18L16 18L16 20L18 20L18 21L20 21L20 20L21 20L21 21L22 21L22 22L23 22L23 23L22 23L22 24L20 24L20 25L21 25L21 26L24 26L24 25L22 25L22 24L23 24L23 23L24 23L24 24L25 24L25 21L24 21L24 22L23 22L23 21L22 21L22 20L21 20L21 18L19 18L19 19L18 19L18 18L17 18L17 17L14 17L14 16L15 16L15 15L14 15L14 16L13 16L13 17L12 17L12 15L13 15L13 14L12 14L12 13L11 13L11 12L10 12L10 13L8 13L8 14L7 14L7 13L6 13L6 12L8 12L8 11L6 11L6 10L7 10L7 9L6 9L6 10L5 10L5 9ZM30 10L30 11L29 11L29 12L30 12L30 11L31 11L31 10ZM14 11L14 12L15 12L15 11ZM16 11L16 12L17 12L17 13L18 13L18 15L19 15L19 14L21 14L21 13L18 13L18 12L19 12L19 11L18 11L18 12L17 12L17 11ZM10 13L10 15L11 15L11 13ZM8 14L8 15L9 15L9 14ZM25 15L25 16L26 16L26 15ZM6 16L6 17L7 17L7 16ZM28 17L28 18L27 18L27 19L28 19L28 20L29 20L29 21L28 21L28 22L29 22L29 21L30 21L30 23L29 23L29 24L30 24L30 23L31 23L31 20L30 20L30 19L29 19L29 17ZM11 18L11 21L12 21L12 19L13 19L13 18ZM19 19L19 20L20 20L20 19ZM7 21L7 22L6 22L6 23L7 23L7 22L8 22L8 21ZM26 22L26 23L27 23L27 24L28 24L28 23L27 23L27 22ZM25 25L25 28L28 28L28 25ZM29 25L29 26L30 26L30 25ZM26 26L26 27L27 27L27 26ZM29 27L29 28L30 28L30 27ZM23 28L23 29L24 29L24 28ZM9 29L9 31L10 31L10 29ZM28 30L28 31L29 31L29 32L30 32L30 31L29 31L29 30ZM14 31L14 32L16 32L16 31ZM0 0L0 7L7 7L7 0ZM1 1L1 6L6 6L6 1ZM2 2L2 5L5 5L5 2ZM26 0L26 7L33 7L33 0ZM27 1L27 6L32 6L32 1ZM28 2L28 5L31 5L31 2ZM0 26L0 33L7 33L7 26ZM1 27L1 32L6 32L6 27ZM2 28L2 31L5 31L5 28Z" fill="#000000"/></g></g></svg>
