<?xml version="1.0" encoding="UTF-8"?>
<svg xmlns="http://www.w3.org/2000/svg" version="1.1" width="200" height="200" viewBox="0 0 200 200"><rect x="0" y="0" width="200" height="200" fill="#ffffff"/><g transform="scale(5.405)"><g transform="translate(2,2)"><path fill-rule="evenodd" d="M8 0L8 2L10 2L10 4L8 4L8 9L7 9L7 8L5 8L5 9L7 9L7 10L6 10L6 11L7 11L7 12L4 12L4 11L5 11L5 10L4 10L4 9L3 9L3 8L0 8L0 10L2 10L2 12L1 12L1 13L2 13L2 14L3 14L3 15L1 15L1 14L0 14L0 17L1 17L1 16L3 16L3 17L4 17L4 19L3 19L3 18L2 18L2 19L0 19L0 20L1 20L1 21L2 21L2 20L6 20L6 21L7 21L7 22L5 22L5 21L3 21L3 22L4 22L4 23L3 23L3 24L4 24L4 25L8 25L8 26L9 26L9 25L8 25L8 24L5 24L5 23L8 23L8 21L7 21L7 20L6 20L6 19L10 19L10 20L9 20L9 24L10 24L10 27L8 27L8 28L9 28L9 29L10 29L10 31L9 31L9 30L8 30L8 33L11 33L11 32L13 32L13 33L16 33L16 32L17 32L17 33L18 33L18 32L20 32L20 33L21 33L21 31L22 31L22 32L23 32L23 33L26 33L26 31L24 31L24 32L23 32L23 30L25 30L25 29L27 29L27 31L28 31L28 32L29 32L29 33L30 33L30 32L29 32L29 31L30 31L30 30L29 30L29 24L25 24L25 23L24 23L24 22L26 22L26 23L27 23L27 20L28 20L28 18L27 18L27 15L28 15L28 16L29 16L29 18L32 18L32 19L33 19L33 16L32 16L32 17L30 17L30 16L29 16L29 14L32 14L32 15L33 15L33 12L31 12L31 13L30 13L30 12L29 12L29 11L30 11L30 10L31 10L31 11L33 11L33 8L31 8L31 9L30 9L30 10L29 10L29 11L28 11L28 10L27 10L27 9L29 9L29 8L25 8L25 9L23 9L23 11L22 11L22 9L20 9L20 7L21 7L21 6L20 6L20 7L19 7L19 1L20 1L20 4L21 4L21 5L22 5L22 8L23 8L23 1L22 1L22 0L21 0L21 1L20 1L20 0L15 0L15 1L13 1L13 0L11 0L11 1L9 1L9 0ZM11 1L11 2L12 2L12 1ZM15 1L15 2L16 2L16 1ZM17 1L17 2L18 2L18 1ZM21 1L21 2L22 2L22 1ZM24 1L24 4L25 4L25 1ZM13 2L13 3L11 3L11 4L12 4L12 6L11 6L11 5L9 5L9 8L10 8L10 6L11 6L11 7L12 7L12 6L13 6L13 8L11 8L11 10L9 10L9 9L8 9L8 11L10 11L10 14L7 14L7 13L9 13L9 12L7 12L7 13L6 13L6 14L7 14L7 15L4 15L4 16L7 16L7 17L5 17L5 19L6 19L6 18L7 18L7 17L8 17L8 18L9 18L9 17L8 17L8 16L10 16L10 17L11 17L11 18L10 18L10 19L11 19L11 20L10 20L10 21L11 21L11 22L10 22L10 23L12 23L12 21L11 21L11 20L13 20L13 19L14 19L14 21L13 21L13 22L15 22L15 20L16 20L16 23L15 23L15 24L16 24L16 28L18 28L18 29L17 29L17 30L16 30L16 29L15 29L15 26L13 26L13 24L14 24L14 23L13 23L13 24L11 24L11 26L12 26L12 27L10 27L10 28L13 28L13 27L14 27L14 29L13 29L13 30L16 30L16 31L17 31L17 32L18 32L18 31L19 31L19 30L18 30L18 29L20 29L20 30L21 30L21 29L22 29L22 30L23 30L23 28L22 28L22 27L24 27L24 24L23 24L23 21L24 21L24 19L25 19L25 20L26 20L26 19L25 19L25 18L24 18L24 17L25 17L25 16L26 16L26 15L27 15L27 14L29 14L29 12L28 12L28 13L27 13L27 14L26 14L26 13L25 13L25 10L24 10L24 13L25 13L25 14L24 14L24 15L25 15L25 16L22 16L22 15L23 15L23 13L22 13L22 11L21 11L21 10L20 10L20 11L19 11L19 10L18 10L18 9L19 9L19 8L18 8L18 5L17 5L17 3L15 3L15 4L16 4L16 6L15 6L15 5L13 5L13 4L14 4L14 2ZM24 5L24 7L25 7L25 5ZM14 6L14 8L13 8L13 10L15 10L15 11L16 11L16 10L15 10L15 8L17 8L17 6L16 6L16 7L15 7L15 6ZM2 9L2 10L3 10L3 9ZM11 10L11 11L12 11L12 10ZM17 10L17 11L18 11L18 10ZM13 11L13 12L11 12L11 13L12 13L12 15L11 15L11 16L13 16L13 18L15 18L15 19L16 19L16 20L17 20L17 19L18 19L18 20L19 20L19 24L18 24L18 25L17 25L17 26L18 26L18 25L19 25L19 27L18 27L18 28L20 28L20 29L21 29L21 27L22 27L22 25L21 25L21 23L22 23L22 22L21 22L21 21L20 21L20 19L22 19L22 20L23 20L23 19L24 19L24 18L21 18L21 14L22 14L22 13L21 13L21 11L20 11L20 12L19 12L19 14L17 14L17 12L15 12L15 13L16 13L16 15L15 15L15 14L13 14L13 13L14 13L14 11ZM26 11L26 12L27 12L27 11ZM3 13L3 14L5 14L5 13ZM13 15L13 16L14 16L14 15ZM17 15L17 17L16 17L16 16L15 16L15 18L16 18L16 19L17 19L17 17L18 17L18 18L19 18L19 16L20 16L20 15L19 15L19 16L18 16L18 15ZM11 18L11 19L12 19L12 18ZM32 20L32 21L31 21L31 22L30 22L30 23L31 23L31 22L32 22L32 23L33 23L33 20ZM17 21L17 23L18 23L18 21ZM0 22L0 23L2 23L2 22ZM20 22L20 23L21 23L21 22ZM28 22L28 23L29 23L29 22ZM0 24L0 25L2 25L2 24ZM19 24L19 25L20 25L20 24ZM31 24L31 25L30 25L30 27L31 27L31 28L32 28L32 29L31 29L31 31L33 31L33 25L32 25L32 24ZM25 25L25 28L28 28L28 25ZM31 25L31 27L32 27L32 25ZM20 26L20 27L21 27L21 26ZM26 26L26 27L27 27L27 26ZM11 29L11 31L10 31L10 32L11 32L11 31L12 31L12 29ZM13 31L13 32L14 32L14 31ZM32 32L32 33L33 33L33 32ZM0 0L0 7L7 7L7 0ZM1 1L1 6L6 6L6 1ZM2 2L2 5L5 5L5 2ZM26 0L26 7L33 7L33 0ZM27 1L27 6L32 6L32 1ZM28 2L28 5L31 5L31 2ZM0 26L0 33L7 33L7 26ZM1 27L1 32L6 32L6 27ZM2 28L2 31L5 31L5 28Z" fill="#000000"/></g></g></svg>
